<svg width="863" height="435" viewBox="0 0 863 435" fill="none" xmlns="http://www.w3.org/2000/svg">
<path d="M334.632 428V410.24H341.352C342.792 410.24 344.056 410.496 345.144 411.008C346.248 411.504 347.16 412.176 347.88 413.024C348.6 413.872 349.144 414.824 349.512 415.88C349.88 416.936 350.064 418.016 350.064 419.12C350.064 420.224 349.88 421.304 349.512 422.36C349.144 423.416 348.6 424.368 347.88 425.216C347.16 426.064 346.248 426.744 345.144 427.256C344.056 427.752 342.792 428 341.352 428H334.632ZM341.184 413.48H338.328V424.712H341.184C342.352 424.712 343.312 424.44 344.064 423.896C344.832 423.352 345.4 422.648 345.768 421.784C346.152 420.92 346.344 420.024 346.344 419.096C346.344 418.168 346.152 417.28 345.768 416.432C345.4 415.568 344.832 414.864 344.064 414.32C343.312 413.76 342.352 413.48 341.184 413.48ZM358.919 428.24C357.495 428.24 356.287 427.936 355.295 427.328C354.303 426.704 353.543 425.896 353.015 424.904C352.503 423.896 352.247 422.808 352.247 421.64C352.247 420.472 352.503 419.392 353.015 418.4C353.543 417.392 354.303 416.584 355.295 415.976C356.287 415.352 357.495 415.04 358.919 415.04C360.343 415.04 361.551 415.352 362.543 415.976C363.535 416.584 364.287 417.392 364.799 418.4C365.327 419.392 365.591 420.472 365.591 421.64C365.591 422.808 365.327 423.896 364.799 424.904C364.287 425.896 363.535 426.704 362.543 427.328C361.551 427.936 360.343 428.24 358.919 428.24ZM358.919 425.264C359.559 425.264 360.095 425.096 360.527 424.76C360.975 424.424 361.319 423.984 361.559 423.44C361.799 422.88 361.919 422.28 361.919 421.64C361.919 420.984 361.799 420.384 361.559 419.84C361.319 419.296 360.975 418.856 360.527 418.52C360.095 418.184 359.559 418.016 358.919 418.016C358.279 418.016 357.735 418.184 357.287 418.52C356.839 418.856 356.495 419.296 356.255 419.84C356.031 420.384 355.919 420.984 355.919 421.64C355.919 422.28 356.031 422.88 356.255 423.44C356.495 423.984 356.839 424.424 357.287 424.76C357.735 425.096 358.279 425.264 358.919 425.264ZM372.172 428.24C371.276 428.24 370.532 428.048 369.94 427.664C369.364 427.28 368.932 426.768 368.644 426.128C368.356 425.472 368.212 424.736 368.212 423.92V415.28H371.836V423.2C371.836 423.808 371.996 424.304 372.316 424.688C372.636 425.056 373.108 425.24 373.732 425.24C374.26 425.24 374.676 425.112 374.98 424.856C375.3 424.6 375.532 424.272 375.676 423.872C375.82 423.472 375.892 423.048 375.892 422.6V415.28H379.54V428H375.892V426.2H375.748C375.476 426.696 375.052 427.16 374.476 427.592C373.916 428.024 373.148 428.24 372.172 428.24ZM390.146 428.24C389.33 428.24 388.658 428.112 388.13 427.856C387.602 427.584 387.194 427.296 386.906 426.992C386.634 426.688 386.458 426.48 386.378 426.368H386.21V428H382.562V409.76H386.21V416.912H386.378C386.458 416.8 386.634 416.592 386.906 416.288C387.194 415.984 387.602 415.704 388.13 415.448C388.658 415.176 389.33 415.04 390.146 415.04C391.09 415.04 391.906 415.232 392.594 415.616C393.298 415.984 393.882 416.488 394.346 417.128C394.81 417.752 395.154 418.456 395.378 419.24C395.618 420.024 395.738 420.824 395.738 421.64C395.738 422.456 395.618 423.256 395.378 424.04C395.154 424.824 394.81 425.536 394.346 426.176C393.882 426.8 393.298 427.304 392.594 427.688C391.906 428.056 391.09 428.24 390.146 428.24ZM389.09 425.288C389.746 425.288 390.29 425.112 390.722 424.76C391.17 424.392 391.498 423.928 391.706 423.368C391.93 422.808 392.042 422.232 392.042 421.64C392.042 421.048 391.93 420.472 391.706 419.912C391.498 419.352 391.17 418.896 390.722 418.544C390.29 418.176 389.746 417.992 389.09 417.992C388.434 417.992 387.882 418.176 387.434 418.544C387.002 418.896 386.674 419.352 386.45 419.912C386.242 420.472 386.138 421.048 386.138 421.64C386.138 422.232 386.242 422.808 386.45 423.368C386.674 423.928 387.002 424.392 387.434 424.76C387.882 425.112 388.434 425.288 389.09 425.288ZM398.452 428V409.76H402.1V428H398.452ZM411.322 428.24C410.202 428.24 409.234 428.056 408.418 427.688C407.602 427.304 406.93 426.8 406.402 426.176C405.874 425.536 405.474 424.824 405.202 424.04C404.946 423.256 404.818 422.448 404.818 421.616C404.818 420.816 404.938 420.032 405.178 419.264C405.434 418.48 405.818 417.768 406.33 417.128C406.858 416.488 407.522 415.984 408.322 415.616C409.138 415.232 410.098 415.04 411.202 415.04C412.37 415.04 413.402 415.296 414.298 415.808C415.21 416.32 415.922 417.08 416.434 418.088C416.946 419.08 417.202 420.288 417.202 421.712V422.6H408.49C408.538 423.368 408.802 424.032 409.282 424.592C409.778 425.152 410.458 425.432 411.322 425.432C411.818 425.432 412.218 425.36 412.522 425.216C412.842 425.056 413.09 424.88 413.266 424.688C413.442 424.48 413.562 424.296 413.626 424.136C413.69 423.976 413.722 423.896 413.722 423.896H417.082C417.082 423.896 417.042 424.048 416.962 424.352C416.898 424.64 416.754 425 416.53 425.432C416.306 425.864 415.978 426.296 415.546 426.728C415.13 427.16 414.578 427.52 413.89 427.808C413.202 428.096 412.346 428.24 411.322 428.24ZM408.49 420.392H413.698C413.65 419.512 413.386 418.856 412.906 418.424C412.426 417.992 411.834 417.776 411.13 417.776C410.426 417.776 409.826 418.008 409.33 418.472C408.834 418.92 408.554 419.56 408.49 420.392ZM425.593 428V410.24H432.313C433.753 410.24 435.017 410.496 436.105 411.008C437.209 411.504 438.121 412.176 438.841 413.024C439.561 413.872 440.105 414.824 440.473 415.88C440.841 416.936 441.025 418.016 441.025 419.12C441.025 420.224 440.841 421.304 440.473 422.36C440.105 423.416 439.561 424.368 438.841 425.216C438.121 426.064 437.209 426.744 436.105 427.256C435.017 427.752 433.753 428 432.313 428H425.593ZM432.145 413.48H429.289V424.712H432.145C433.313 424.712 434.273 424.44 435.025 423.896C435.793 423.352 436.361 422.648 436.729 421.784C437.113 420.92 437.305 420.024 437.305 419.096C437.305 418.168 437.113 417.28 436.729 416.432C436.361 415.568 435.793 414.864 435.025 414.32C434.273 413.76 433.313 413.48 432.145 413.48ZM445.536 413.552C444.896 413.552 444.376 413.352 443.976 412.952C443.576 412.536 443.376 412.048 443.376 411.488C443.376 410.896 443.576 410.4 443.976 410C444.376 409.584 444.896 409.376 445.536 409.376C446.144 409.376 446.656 409.584 447.072 410C447.488 410.4 447.696 410.896 447.696 411.488C447.696 412.048 447.488 412.536 447.072 412.952C446.656 413.352 446.144 413.552 445.536 413.552ZM443.712 428V415.28H447.36V428H443.712ZM455.902 415.04C456.718 415.04 457.39 415.176 457.918 415.448C458.446 415.704 458.846 415.984 459.118 416.288C459.406 416.592 459.582 416.8 459.646 416.912H459.838V415.28H463.486V428H459.838V426.368H459.646C459.582 426.48 459.406 426.688 459.118 426.992C458.846 427.296 458.446 427.584 457.918 427.856C457.39 428.112 456.718 428.24 455.902 428.24C454.958 428.24 454.134 428.056 453.43 427.688C452.742 427.304 452.166 426.8 451.702 426.176C451.238 425.536 450.886 424.824 450.646 424.04C450.422 423.256 450.31 422.456 450.31 421.64C450.31 420.824 450.422 420.024 450.646 419.24C450.886 418.456 451.238 417.752 451.702 417.128C452.166 416.488 452.742 415.984 453.43 415.616C454.134 415.232 454.958 415.04 455.902 415.04ZM456.958 417.992C456.302 417.992 455.75 418.176 455.302 418.544C454.87 418.896 454.542 419.352 454.318 419.912C454.11 420.472 454.006 421.048 454.006 421.64C454.006 422.232 454.11 422.808 454.318 423.368C454.542 423.928 454.87 424.392 455.302 424.76C455.75 425.112 456.302 425.288 456.958 425.288C457.614 425.288 458.158 425.112 458.59 424.76C459.038 424.392 459.366 423.928 459.574 423.368C459.798 422.808 459.91 422.232 459.91 421.64C459.91 421.048 459.798 420.472 459.574 419.912C459.366 419.352 459.038 418.896 458.59 418.544C458.158 418.176 457.614 417.992 456.958 417.992ZM466.345 428V415.28H469.993V417.008H470.113C470.385 416.544 470.793 416.104 471.337 415.688C471.881 415.256 472.625 415.04 473.569 415.04C474.529 415.04 475.297 415.264 475.873 415.712C476.465 416.16 476.897 416.712 477.169 417.368H477.217C477.425 417 477.697 416.64 478.033 416.288C478.385 415.92 478.817 415.624 479.329 415.4C479.857 415.16 480.473 415.04 481.177 415.04C482.057 415.04 482.785 415.24 483.361 415.64C483.937 416.04 484.361 416.568 484.633 417.224C484.921 417.864 485.065 418.552 485.065 419.288V428H481.417V420.2C481.417 419.576 481.257 419.064 480.937 418.664C480.633 418.248 480.169 418.04 479.545 418.04C479.065 418.04 478.673 418.16 478.369 418.4C478.081 418.64 477.865 418.952 477.721 419.336C477.593 419.704 477.529 420.088 477.529 420.488V428H473.881V420.2C473.881 419.576 473.721 419.064 473.401 418.664C473.097 418.248 472.633 418.04 472.009 418.04C471.529 418.04 471.137 418.16 470.833 418.4C470.545 418.64 470.329 418.952 470.185 419.336C470.057 419.704 469.993 420.088 469.993 420.488V428H466.345ZM494.224 428.24C492.8 428.24 491.592 427.936 490.6 427.328C489.608 426.704 488.848 425.896 488.32 424.904C487.808 423.896 487.552 422.808 487.552 421.64C487.552 420.472 487.808 419.392 488.32 418.4C488.848 417.392 489.608 416.584 490.6 415.976C491.592 415.352 492.8 415.04 494.224 415.04C495.648 415.04 496.856 415.352 497.848 415.976C498.84 416.584 499.592 417.392 500.104 418.4C500.632 419.392 500.896 420.472 500.896 421.64C500.896 422.808 500.632 423.896 500.104 424.904C499.592 425.896 498.84 426.704 497.848 427.328C496.856 427.936 495.648 428.24 494.224 428.24ZM494.224 425.264C494.864 425.264 495.4 425.096 495.832 424.76C496.28 424.424 496.624 423.984 496.864 423.44C497.104 422.88 497.224 422.28 497.224 421.64C497.224 420.984 497.104 420.384 496.864 419.84C496.624 419.296 496.28 418.856 495.832 418.52C495.4 418.184 494.864 418.016 494.224 418.016C493.584 418.016 493.04 418.184 492.592 418.52C492.144 418.856 491.8 419.296 491.56 419.84C491.336 420.384 491.224 420.984 491.224 421.64C491.224 422.28 491.336 422.88 491.56 423.44C491.8 423.984 492.144 424.424 492.592 424.76C493.04 425.096 493.584 425.264 494.224 425.264ZM503.376 428V415.28H507.024V417.104H507.144C507.288 416.848 507.496 416.56 507.768 416.24C508.056 415.92 508.432 415.64 508.896 415.4C509.376 415.16 509.984 415.04 510.72 415.04C511.712 415.04 512.52 415.272 513.144 415.736C513.768 416.184 514.224 416.768 514.512 417.488C514.8 418.192 514.944 418.936 514.944 419.72V428H511.296V420.344C511.296 419.736 511.128 419.2 510.792 418.736C510.472 418.272 509.952 418.04 509.232 418.04C508.688 418.04 508.256 418.168 507.936 418.424C507.616 418.68 507.384 419.008 507.24 419.408C507.096 419.808 507.024 420.232 507.024 420.68V428H503.376ZM523.004 428.24C522.06 428.24 521.236 428.056 520.532 427.688C519.844 427.304 519.268 426.8 518.804 426.176C518.34 425.536 517.988 424.824 517.748 424.04C517.524 423.256 517.412 422.456 517.412 421.64C517.412 420.824 517.524 420.024 517.748 419.24C517.988 418.456 518.34 417.752 518.804 417.128C519.268 416.488 519.844 415.984 520.532 415.616C521.236 415.232 522.06 415.04 523.004 415.04C523.82 415.04 524.492 415.176 525.02 415.448C525.548 415.704 525.948 415.984 526.22 416.288C526.508 416.592 526.684 416.8 526.748 416.912H526.94V409.76H530.588V428H526.94V426.368H526.748C526.684 426.48 526.508 426.688 526.22 426.992C525.948 427.296 525.548 427.584 525.02 427.856C524.492 428.112 523.82 428.24 523.004 428.24ZM524.06 425.288C524.716 425.288 525.26 425.112 525.692 424.76C526.14 424.392 526.468 423.928 526.676 423.368C526.9 422.808 527.012 422.232 527.012 421.64C527.012 421.048 526.9 420.472 526.676 419.912C526.468 419.352 526.14 418.896 525.692 418.544C525.26 418.176 524.716 417.992 524.06 417.992C523.404 417.992 522.852 418.176 522.404 418.544C521.972 418.896 521.644 419.352 521.42 419.912C521.212 420.472 521.108 421.048 521.108 421.64C521.108 422.232 521.212 422.808 521.42 423.368C521.644 423.928 521.972 424.392 522.404 424.76C522.852 425.112 523.404 425.288 524.06 425.288Z" fill="#444444"/>
<path d="M333 431H532.219V432.2H333V431Z" fill="#444444"/>
<a href="https://www.designcouncil.org.uk/our-resources/the-double-diamond/">
<rect fill="black" fill-opacity="0" y="0.82" width="199.219" height="30.36"/>
</a>
<path d="M94.5522 270.079L107.11 257.521L111.862 262.273C112.88 263.291 113.593 264.366 114 265.497C114.43 266.629 114.6 267.749 114.51 268.858C114.419 269.966 114.131 271.024 113.644 272.031C113.158 273.038 112.524 273.932 111.743 274.712C110.963 275.493 110.069 276.127 109.062 276.613C108.055 277.1 106.997 277.388 105.889 277.479C104.78 277.569 103.654 277.405 102.511 276.986C101.391 276.568 100.322 275.849 99.3039 274.831L94.5522 270.079ZM109.452 264.445L107.433 262.426L99.4906 270.368L101.51 272.387C102.336 273.213 103.207 273.7 104.124 273.847C105.051 274.005 105.951 273.909 106.822 273.558C107.704 273.219 108.474 272.721 109.13 272.065C109.786 271.409 110.278 270.645 110.606 269.774C110.957 268.903 111.053 268.003 110.895 267.076C110.759 266.148 110.278 265.271 109.452 264.445ZM118.871 273.965C118.418 273.513 118.192 273.004 118.192 272.438C118.203 271.861 118.407 271.374 118.803 270.978C119.221 270.56 119.713 270.351 120.279 270.351C120.856 270.339 121.371 270.56 121.823 271.012C122.253 271.442 122.468 271.951 122.468 272.54C122.48 273.117 122.276 273.615 121.857 274.033C121.461 274.429 120.969 274.627 120.381 274.627C119.804 274.616 119.301 274.395 118.871 273.965ZM107.365 282.892L116.359 273.897L118.938 276.477L109.944 285.471L107.365 282.892ZM115.763 291.63C115.017 290.883 114.502 290.165 114.219 289.475C113.936 288.785 113.795 288.145 113.795 287.557C113.817 286.969 113.902 286.454 114.049 286.013C114.219 285.571 114.383 285.226 114.541 284.977C114.711 284.74 114.796 284.621 114.796 284.621L117.189 287.014C117.189 287.014 117.149 287.087 117.07 287.235C116.991 287.382 116.934 287.585 116.9 287.845C116.878 288.117 116.923 288.422 117.036 288.762C117.149 289.101 117.398 289.463 117.783 289.848C118.258 290.323 118.677 290.549 119.039 290.527C119.412 290.515 119.695 290.414 119.887 290.221C120.294 289.814 120.232 289.209 119.7 288.405L118.716 286.946C118.298 286.324 117.952 285.685 117.681 285.028C117.432 284.372 117.342 283.727 117.409 283.094C117.5 282.46 117.828 281.861 118.394 281.295C118.937 280.752 119.565 280.407 120.277 280.26C120.99 280.113 121.731 280.175 122.501 280.446C123.281 280.729 124.039 281.238 124.775 281.974C125.465 282.664 125.94 283.331 126.2 283.976C126.483 284.621 126.619 285.221 126.607 285.775C126.607 286.318 126.534 286.799 126.387 287.218C126.251 287.625 126.104 287.942 125.946 288.168C125.81 288.394 125.742 288.507 125.742 288.507L123.434 286.199C123.434 286.199 123.474 286.092 123.553 285.877C123.643 285.651 123.655 285.356 123.587 284.994C123.541 284.632 123.304 284.236 122.874 283.806C122.433 283.365 122.037 283.15 121.686 283.162C121.347 283.162 121.081 283.258 120.888 283.45C120.662 283.676 120.589 283.942 120.668 284.248C120.758 284.564 120.928 284.915 121.177 285.3L122.11 286.708C122.8 287.738 123.208 288.745 123.332 289.729C123.468 290.702 123.134 291.59 122.331 292.394C121.788 292.937 121.154 293.287 120.43 293.446C119.706 293.604 118.942 293.542 118.139 293.259C117.347 292.965 116.555 292.422 115.763 291.63ZM125.593 301.459C124.801 300.667 124.241 299.847 123.913 298.999C123.596 298.139 123.466 297.296 123.522 296.47C123.579 295.644 123.788 294.858 124.15 294.111C124.524 293.353 124.999 292.686 125.576 292.109C126.153 291.532 126.815 291.062 127.561 290.7C128.308 290.338 129.094 290.129 129.92 290.072C130.757 290.004 131.6 290.134 132.449 290.462C133.309 290.779 134.135 291.334 134.926 292.125C135.73 292.929 136.273 293.709 136.556 294.467C136.85 295.214 136.974 295.916 136.929 296.572C136.906 297.228 136.793 297.805 136.59 298.303C136.397 298.789 136.199 299.168 135.996 299.44C135.815 299.711 135.724 299.847 135.724 299.847L133.314 297.437C133.314 297.437 133.36 297.347 133.45 297.166C133.563 296.985 133.648 296.741 133.705 296.436C133.784 296.131 133.772 295.791 133.671 295.418C133.58 295.033 133.337 294.643 132.941 294.247C132.454 293.76 131.923 293.477 131.346 293.398C130.791 293.319 130.237 293.398 129.683 293.636C129.128 293.873 128.619 294.224 128.155 294.688C127.691 295.152 127.341 295.661 127.103 296.215C126.865 296.77 126.781 297.33 126.848 297.895C126.939 298.461 127.228 298.987 127.714 299.474C128.11 299.87 128.495 300.119 128.868 300.22C129.253 300.311 129.592 300.322 129.886 300.254C130.203 300.187 130.446 300.102 130.616 300C130.808 299.898 130.904 299.847 130.904 299.847L133.314 302.257C133.314 302.257 133.173 302.353 132.89 302.545C132.63 302.738 132.251 302.936 131.753 303.139C131.267 303.332 130.69 303.445 130.022 303.479C129.377 303.513 128.676 303.388 127.918 303.105C127.171 302.811 126.396 302.263 125.593 301.459ZM136.2 312.067C135.193 311.06 134.554 309.991 134.282 308.859C134.022 307.717 134.056 306.608 134.384 305.533C134.735 304.458 135.323 303.508 136.149 302.682C136.975 301.856 137.92 301.273 138.983 300.934C140.069 300.595 141.178 300.561 142.309 300.832C143.452 301.092 144.527 301.726 145.534 302.733C146.541 303.74 147.174 304.815 147.435 305.957C147.706 307.089 147.667 308.192 147.316 309.267C146.988 310.341 146.411 311.292 145.585 312.118C144.759 312.944 143.803 313.526 142.717 313.866C141.653 314.205 140.55 314.245 139.408 313.984C138.276 313.713 137.207 313.074 136.2 312.067ZM138.304 309.962C138.757 310.415 139.255 310.675 139.798 310.743C140.352 310.822 140.907 310.754 141.461 310.539C142.027 310.313 142.536 309.974 142.988 309.521C143.452 309.057 143.792 308.548 144.007 307.994C144.221 307.439 144.289 306.885 144.21 306.331C144.142 305.788 143.882 305.29 143.43 304.837C142.977 304.385 142.474 304.119 141.919 304.04C141.365 303.96 140.81 304.028 140.256 304.243C139.713 304.47 139.21 304.815 138.746 305.278C138.293 305.731 137.948 306.234 137.71 306.789C137.495 307.343 137.428 307.898 137.507 308.452C137.586 309.006 137.852 309.51 138.304 309.962ZM145.192 320.719L150.894 308.432L153.473 311.012L149.485 319.209L157.597 315.136L160.194 317.732L147.89 323.417L145.192 320.719ZM156.433 332.299C155.641 331.507 155.086 330.693 154.77 329.856C154.464 329.007 154.345 328.175 154.413 327.361C154.492 326.535 154.713 325.749 155.075 325.002C155.448 324.267 155.929 323.605 156.518 323.016C157.083 322.451 157.722 321.981 158.435 321.608C159.171 321.235 159.946 321.003 160.76 320.912C161.586 320.833 162.412 320.946 163.238 321.251C164.086 321.557 164.901 322.1 165.682 322.881C166.508 323.707 167.056 324.617 167.328 325.613C167.611 326.62 167.577 327.661 167.226 328.736C166.887 329.799 166.213 330.834 165.206 331.841L164.579 332.469L158.418 326.309C157.909 326.886 157.626 327.542 157.57 328.277C157.524 329.024 157.807 329.703 158.418 330.314C158.769 330.664 159.103 330.896 159.42 331.01C159.759 331.123 160.059 331.174 160.319 331.162C160.59 331.14 160.805 331.094 160.964 331.027C161.122 330.959 161.201 330.925 161.201 330.925L163.577 333.301C163.577 333.301 163.442 333.38 163.17 333.538C162.921 333.697 162.565 333.849 162.101 333.996C161.637 334.143 161.1 334.217 160.489 334.217C159.889 334.228 159.244 334.093 158.554 333.81C157.864 333.527 157.157 333.023 156.433 332.299ZM159.98 324.747L163.662 328.43C164.25 327.774 164.528 327.123 164.494 326.478C164.46 325.834 164.194 325.262 163.696 324.764C163.198 324.267 162.61 324.006 161.931 323.984C161.264 323.95 160.613 324.204 159.98 324.747ZM162.613 338.14L171.607 329.146L174.17 331.708L172.863 333.015L172.948 333.1C173.287 332.964 173.661 332.873 174.068 332.828C174.475 332.783 174.911 332.845 175.375 333.015C175.838 333.185 176.319 333.518 176.817 334.016C177.066 334.265 177.247 334.48 177.36 334.661C177.485 334.831 177.547 334.916 177.547 334.916L175.001 337.461C175.001 337.461 174.933 337.359 174.798 337.156C174.673 336.963 174.481 336.737 174.221 336.477C173.417 335.674 172.597 335.295 171.76 335.34C170.934 335.374 170.029 335.883 169.045 336.867L165.192 340.72L162.613 338.14Z" fill="#444444"/>
<path d="M527.303 268.83L539.861 256.272L544.613 261.024C545.631 262.042 546.344 263.117 546.752 264.248C547.181 265.38 547.351 266.5 547.261 267.609C547.17 268.717 546.882 269.775 546.395 270.782C545.909 271.789 545.275 272.683 544.494 273.463C543.714 274.244 542.82 274.878 541.813 275.364C540.806 275.851 539.748 276.139 538.64 276.23C537.531 276.32 536.405 276.156 535.262 275.738C534.142 275.319 533.073 274.6 532.055 273.582L527.303 268.83ZM542.203 263.196L540.184 261.177L532.242 269.119L534.261 271.138C535.087 271.964 535.958 272.451 536.875 272.598C537.802 272.756 538.702 272.66 539.573 272.309C540.455 271.97 541.225 271.472 541.881 270.816C542.537 270.16 543.029 269.396 543.357 268.525C543.708 267.654 543.804 266.754 543.646 265.827C543.51 264.899 543.029 264.022 542.203 263.196ZM544.189 286.055C543.397 285.263 542.842 284.449 542.525 283.611C542.22 282.763 542.101 281.931 542.169 281.117C542.248 280.291 542.469 279.505 542.831 278.758C543.204 278.022 543.685 277.361 544.273 276.772C544.839 276.207 545.478 275.737 546.191 275.364C546.927 274.99 547.701 274.758 548.516 274.668C549.342 274.589 550.168 274.702 550.994 275.007C551.842 275.313 552.657 275.856 553.438 276.637C554.263 277.462 554.812 278.373 555.084 279.369C555.367 280.376 555.333 281.417 554.982 282.491C554.642 283.555 553.969 284.59 552.962 285.597L552.334 286.225L546.174 280.065C545.665 280.642 545.382 281.298 545.326 282.033C545.28 282.78 545.563 283.459 546.174 284.07C546.525 284.42 546.859 284.652 547.175 284.765C547.515 284.879 547.815 284.93 548.075 284.918C548.346 284.896 548.561 284.85 548.72 284.782C548.878 284.715 548.957 284.681 548.957 284.681L551.333 287.056C551.333 287.056 551.197 287.136 550.926 287.294C550.677 287.452 550.321 287.605 549.857 287.752C549.393 287.899 548.855 287.973 548.245 287.973C547.645 287.984 547 287.848 546.31 287.566C545.62 287.283 544.913 286.779 544.189 286.055ZM547.735 278.503L551.418 282.186C552.006 281.53 552.284 280.879 552.25 280.234C552.216 279.589 551.95 279.018 551.452 278.52C550.954 278.022 550.366 277.762 549.687 277.74C549.02 277.706 548.369 277.96 547.735 278.503ZM552.62 294.147L558.322 281.86L560.901 284.44L556.913 292.636L565.025 288.563L567.621 291.16L555.318 296.845L552.62 294.147ZM563.861 305.727C563.069 304.935 562.514 304.121 562.197 303.283C561.892 302.435 561.773 301.603 561.841 300.789C561.92 299.963 562.141 299.177 562.503 298.43C562.876 297.694 563.357 297.033 563.945 296.444C564.511 295.879 565.15 295.409 565.863 295.036C566.598 294.662 567.373 294.43 568.188 294.34C569.014 294.261 569.84 294.374 570.666 294.679C571.514 294.985 572.329 295.528 573.109 296.308C573.935 297.134 574.484 298.045 574.756 299.041C575.038 300.048 575.005 301.089 574.654 302.163C574.314 303.227 573.641 304.262 572.634 305.269L572.006 305.897L565.846 299.737C565.337 300.314 565.054 300.97 564.998 301.705C564.952 302.452 565.235 303.131 565.846 303.742C566.197 304.092 566.531 304.324 566.847 304.437C567.187 304.551 567.487 304.601 567.747 304.59C568.018 304.567 568.233 304.522 568.392 304.454C568.55 304.386 568.629 304.353 568.629 304.353L571.005 306.728C571.005 306.728 570.869 306.808 570.598 306.966C570.349 307.124 569.993 307.277 569.529 307.424C569.065 307.571 568.527 307.645 567.916 307.645C567.317 307.656 566.672 307.52 565.982 307.238C565.292 306.955 564.585 306.451 563.861 305.727ZM567.407 298.175L571.09 301.858C571.678 301.202 571.955 300.551 571.922 299.906C571.888 299.261 571.622 298.69 571.124 298.192C570.626 297.694 570.038 297.434 569.359 297.412C568.691 297.378 568.041 297.632 567.407 298.175ZM570.111 311.638L583.008 298.74L585.588 301.32L572.69 314.218L570.111 311.638ZM579.16 321.027C578.153 320.02 577.514 318.951 577.242 317.819C576.982 316.677 577.016 315.568 577.344 314.493C577.695 313.418 578.283 312.468 579.109 311.642C579.935 310.816 580.88 310.233 581.943 309.894C583.029 309.555 584.138 309.521 585.269 309.792C586.412 310.052 587.487 310.686 588.494 311.693C589.501 312.7 590.134 313.775 590.395 314.917C590.666 316.049 590.626 317.152 590.276 318.226C589.948 319.301 589.371 320.252 588.545 321.078C587.719 321.903 586.763 322.486 585.677 322.826C584.613 323.165 583.51 323.205 582.367 322.944C581.236 322.673 580.167 322.034 579.16 321.027ZM581.264 318.922C581.717 319.375 582.215 319.635 582.758 319.703C583.312 319.782 583.867 319.714 584.421 319.499C584.987 319.273 585.496 318.934 585.948 318.481C586.412 318.017 586.752 317.508 586.966 316.954C587.181 316.399 587.249 315.845 587.17 315.291C587.102 314.748 586.842 314.25 586.389 313.797C585.937 313.345 585.433 313.079 584.879 313C584.325 312.92 583.77 312.988 583.216 313.203C582.673 313.429 582.169 313.775 581.706 314.238C581.253 314.691 580.908 315.194 580.67 315.749C580.455 316.303 580.388 316.858 580.467 317.412C580.546 317.966 580.812 318.47 581.264 318.922ZM582.662 330.808L594.965 318.504L597.545 321.083L596.391 322.237L596.51 322.356C596.646 322.334 596.917 322.311 597.324 322.288C597.743 322.277 598.229 322.367 598.784 322.56C599.35 322.741 599.921 323.12 600.498 323.697C601.165 324.364 601.607 325.077 601.822 325.835C602.059 326.593 602.116 327.362 601.991 328.143C601.878 328.912 601.624 329.654 601.228 330.366C600.843 331.09 600.362 331.741 599.785 332.318C599.208 332.895 598.558 333.376 597.833 333.76C597.121 334.156 596.374 334.417 595.593 334.541C594.824 334.654 594.055 334.598 593.285 334.371C592.539 334.145 591.832 333.698 591.164 333.031C590.587 332.454 590.202 331.888 590.01 331.334C589.829 330.768 589.744 330.276 589.755 329.857C589.778 329.45 589.801 329.178 589.823 329.043L589.705 328.924L585.241 333.387L582.662 330.808ZM592.997 325.53C592.578 325.948 592.244 326.429 591.996 326.972C591.758 327.527 591.662 328.087 591.707 328.652C591.775 329.218 592.041 329.733 592.505 330.197C592.969 330.66 593.478 330.921 594.032 330.977C594.609 331.034 595.169 330.938 595.712 330.689C596.267 330.451 596.753 330.123 597.172 329.704C597.59 329.286 597.918 328.799 598.156 328.245C598.405 327.702 598.495 327.148 598.427 326.582C598.382 326.016 598.128 325.501 597.664 325.038C597.2 324.574 596.679 324.313 596.102 324.257C595.548 324.2 594.994 324.291 594.439 324.528C593.896 324.777 593.415 325.111 592.997 325.53Z" fill="#444444"/>
<path d="M277.04 326.317L264.481 313.758L269.233 309.007C270.251 307.988 271.326 307.276 272.458 306.868C273.589 306.438 274.709 306.269 275.818 306.359C276.927 306.45 277.984 306.738 278.991 307.225C279.998 307.711 280.892 308.345 281.673 309.125C282.453 309.906 283.087 310.8 283.573 311.807C284.06 312.814 284.348 313.872 284.439 314.98C284.529 316.089 284.365 317.215 283.947 318.357C283.528 319.478 282.81 320.547 281.791 321.565L277.04 326.317ZM271.405 311.416L269.386 313.436L277.328 321.378L279.348 319.359C280.174 318.533 280.66 317.662 280.807 316.745C280.966 315.818 280.869 314.918 280.519 314.047C280.179 313.164 279.681 312.395 279.025 311.739C278.369 311.083 277.605 310.591 276.734 310.262C275.863 309.912 274.964 309.816 274.036 309.974C273.108 310.11 272.231 310.591 271.405 311.416ZM294.264 309.431C293.472 310.223 292.658 310.778 291.821 311.094C290.972 311.4 290.141 311.519 289.326 311.451C288.5 311.372 287.714 311.151 286.967 310.789C286.232 310.416 285.57 309.935 284.981 309.346C284.416 308.781 283.946 308.142 283.573 307.429C283.2 306.693 282.968 305.918 282.877 305.104C282.798 304.278 282.911 303.452 283.217 302.626C283.522 301.778 284.065 300.963 284.846 300.182C285.672 299.356 286.582 298.808 287.578 298.536C288.585 298.253 289.626 298.287 290.701 298.638C291.764 298.977 292.799 299.651 293.806 300.658L294.434 301.285L288.274 307.446C288.851 307.955 289.507 308.238 290.242 308.294C290.989 308.34 291.668 308.057 292.279 307.446C292.63 307.095 292.861 306.761 292.975 306.445C293.088 306.105 293.139 305.805 293.127 305.545C293.105 305.274 293.059 305.059 292.992 304.9C292.924 304.742 292.89 304.663 292.89 304.663L295.266 302.287C295.266 302.287 295.345 302.422 295.503 302.694C295.662 302.943 295.814 303.299 295.961 303.763C296.109 304.227 296.182 304.764 296.182 305.375C296.193 305.975 296.058 306.62 295.775 307.31C295.492 308 294.988 308.707 294.264 309.431ZM286.712 305.884L290.395 302.202C289.739 301.614 289.088 301.336 288.443 301.37C287.799 301.404 287.227 301.67 286.729 302.168C286.232 302.666 285.971 303.254 285.949 303.933C285.915 304.6 286.169 305.251 286.712 305.884ZM298.209 284.715C297.768 285.156 297.259 285.382 296.682 285.393C296.105 285.382 295.618 285.179 295.222 284.783C294.804 284.364 294.594 283.872 294.594 283.306C294.594 282.718 294.815 282.203 295.256 281.762C295.697 281.321 296.207 281.106 296.784 281.117C297.361 281.106 297.858 281.309 298.277 281.728C298.673 282.124 298.871 282.616 298.871 283.204C298.871 283.77 298.65 284.273 298.209 284.715ZM300.958 302.398L294.017 295.457L292.592 296.883L290.538 294.829L291.964 293.404L291.251 292.691C290.923 292.363 290.612 291.961 290.318 291.486C290.024 291.011 289.814 290.485 289.69 289.908C289.577 289.319 289.622 288.708 289.826 288.075C290.018 287.43 290.442 286.779 291.098 286.123C291.46 285.761 291.783 285.495 292.066 285.326C292.349 285.133 292.49 285.037 292.49 285.037L294.306 286.853C294.306 286.853 294.227 286.909 294.068 287.023C293.91 287.136 293.757 287.266 293.61 287.413C293.146 287.877 292.96 288.335 293.05 288.788C293.141 289.24 293.401 289.681 293.831 290.111L294.543 290.824L300.721 284.647L309.715 293.641L307.136 296.221L300.195 289.28L296.597 292.877L303.538 299.818L300.958 302.398ZM311.921 291.435L302.927 282.44L305.507 279.861L306.796 281.151L306.881 281.066C306.802 280.783 306.745 280.432 306.712 280.014C306.689 279.584 306.757 279.12 306.915 278.622C307.085 278.113 307.43 277.598 307.95 277.078C308.652 276.376 309.387 275.969 310.157 275.856C310.915 275.731 311.65 275.822 312.363 276.127C313.064 276.422 313.692 276.846 314.246 277.4L320.101 283.255L317.522 285.835L312.108 280.421C311.678 279.991 311.18 279.731 310.615 279.64C310.06 279.538 309.529 279.742 309.019 280.251C308.635 280.636 308.42 281.032 308.375 281.439C308.329 281.846 308.397 282.242 308.578 282.627C308.759 283.012 309.008 283.363 309.325 283.679L314.501 288.855L311.921 291.435ZM326.615 277.081C325.823 277.873 325.008 278.428 324.171 278.744C323.322 279.05 322.491 279.169 321.676 279.101C320.85 279.022 320.064 278.801 319.317 278.439C318.582 278.065 317.92 277.585 317.332 276.996C316.766 276.431 316.296 275.791 315.923 275.079C315.55 274.343 315.318 273.568 315.227 272.754C315.148 271.928 315.261 271.102 315.567 270.276C315.872 269.427 316.415 268.613 317.196 267.832C318.022 267.006 318.933 266.458 319.928 266.186C320.935 265.903 321.976 265.937 323.051 266.288C324.114 266.627 325.149 267.301 326.156 268.307L326.784 268.935L320.624 275.096C321.201 275.605 321.857 275.888 322.593 275.944C323.339 275.989 324.018 275.707 324.629 275.096C324.98 274.745 325.212 274.411 325.325 274.094C325.438 273.755 325.489 273.455 325.477 273.195C325.455 272.923 325.41 272.708 325.342 272.55C325.274 272.392 325.24 272.312 325.24 272.312L327.616 269.937C327.616 269.937 327.695 270.072 327.853 270.344C328.012 270.593 328.165 270.949 328.312 271.413C328.459 271.877 328.532 272.414 328.532 273.025C328.544 273.625 328.408 274.27 328.125 274.96C327.842 275.65 327.339 276.357 326.615 277.081ZM319.063 273.534L322.745 269.852C322.089 269.263 321.439 268.986 320.794 269.02C320.149 269.054 319.577 269.32 319.08 269.818C318.582 270.316 318.322 270.904 318.299 271.583C318.265 272.25 318.52 272.901 319.063 273.534Z" fill="#444444"/>
<path d="M708.612 331.745L696.054 319.186L700.805 314.435C701.824 313.416 702.898 312.704 704.03 312.296C705.161 311.866 706.281 311.697 707.39 311.787C708.499 311.878 709.556 312.166 710.563 312.653C711.57 313.139 712.464 313.773 713.245 314.553C714.025 315.334 714.659 316.228 715.145 317.235C715.632 318.242 715.92 319.299 716.011 320.408C716.101 321.517 715.937 322.643 715.519 323.785C715.1 324.905 714.382 325.975 713.364 326.993L708.612 331.745ZM702.978 316.844L700.958 318.864L708.9 326.806L710.92 324.787C711.746 323.961 712.232 323.09 712.379 322.173C712.538 321.245 712.441 320.346 712.091 319.475C711.751 318.592 711.254 317.823 710.597 317.167C709.941 316.511 709.177 316.019 708.306 315.69C707.435 315.34 706.536 315.244 705.608 315.402C704.68 315.538 703.803 316.019 702.978 316.844ZM725.836 314.859C725.045 315.651 724.23 316.206 723.393 316.522C722.544 316.828 721.713 316.947 720.898 316.879C720.072 316.8 719.286 316.579 718.539 316.217C717.804 315.844 717.142 315.363 716.554 314.774C715.988 314.209 715.518 313.569 715.145 312.857C714.772 312.121 714.54 311.346 714.449 310.532C714.37 309.706 714.483 308.88 714.789 308.054C715.094 307.206 715.637 306.391 716.418 305.61C717.244 304.784 718.154 304.236 719.15 303.964C720.157 303.681 721.198 303.715 722.273 304.066C723.336 304.405 724.371 305.079 725.378 306.085L726.006 306.713L719.846 312.874C720.423 313.383 721.079 313.666 721.814 313.722C722.561 313.767 723.24 313.485 723.851 312.874C724.202 312.523 724.434 312.189 724.547 311.872C724.66 311.533 724.711 311.233 724.699 310.973C724.677 310.701 724.632 310.487 724.564 310.328C724.496 310.17 724.462 310.091 724.462 310.091L726.838 307.715C726.838 307.715 726.917 307.85 727.075 308.122C727.234 308.371 727.386 308.727 727.534 309.191C727.681 309.655 727.754 310.192 727.754 310.803C727.765 311.403 727.63 312.048 727.347 312.738C727.064 313.428 726.561 314.135 725.836 314.859ZM718.285 311.312L721.967 307.63C721.311 307.041 720.66 306.764 720.016 306.798C719.371 306.832 718.799 307.098 718.302 307.596C717.804 308.094 717.544 308.682 717.521 309.361C717.487 310.028 717.742 310.679 718.285 311.312ZM731.747 308.609L718.85 295.711L721.429 293.132L734.327 306.029L731.747 308.609ZM727.778 292.146C727.325 292.599 726.816 292.825 726.25 292.825C725.673 292.814 725.187 292.61 724.791 292.214C724.372 291.795 724.163 291.303 724.163 290.737C724.152 290.16 724.372 289.646 724.825 289.193C725.255 288.763 725.764 288.548 726.352 288.548C726.929 288.537 727.427 288.741 727.846 289.159C728.242 289.555 728.44 290.047 728.44 290.636C728.428 291.213 728.208 291.716 727.778 292.146ZM736.704 303.652L727.71 294.658L730.289 292.078L739.284 301.073L736.704 303.652ZM744.187 296.17L731.9 290.468L734.479 287.888L742.676 291.876L738.603 283.764L741.2 281.168L746.885 293.471L744.187 296.17ZM755.767 284.929C754.975 285.721 754.16 286.275 753.323 286.592C752.475 286.897 751.643 287.016 750.829 286.948C750.003 286.869 749.216 286.648 748.47 286.286C747.734 285.913 747.072 285.432 746.484 284.844C745.918 284.278 745.449 283.639 745.076 282.926C744.702 282.191 744.47 281.416 744.38 280.601C744.301 279.775 744.414 278.949 744.719 278.124C745.025 277.275 745.568 276.46 746.348 275.68C747.174 274.854 748.085 274.305 749.081 274.034C750.087 273.751 751.128 273.785 752.203 274.135C753.267 274.475 754.302 275.148 755.309 276.155L755.937 276.783L749.776 282.943C750.353 283.452 751.01 283.735 751.745 283.792C752.492 283.837 753.17 283.554 753.781 282.943C754.132 282.592 754.364 282.259 754.477 281.942C754.59 281.603 754.641 281.303 754.63 281.042C754.607 280.771 754.562 280.556 754.494 280.398C754.426 280.239 754.392 280.16 754.392 280.16L756.768 277.784C756.768 277.784 756.847 277.92 757.006 278.191C757.164 278.44 757.317 278.797 757.464 279.261C757.611 279.724 757.685 280.262 757.685 280.873C757.696 281.472 757.56 282.117 757.277 282.807C756.995 283.498 756.491 284.205 755.767 284.929ZM748.215 281.382L751.898 277.699C751.241 277.111 750.591 276.834 749.946 276.868C749.301 276.902 748.73 277.168 748.232 277.665C747.734 278.163 747.474 278.751 747.451 279.43C747.417 280.098 747.672 280.748 748.215 281.382ZM761.608 278.749L752.613 269.754L755.176 267.192L756.483 268.498L756.567 268.414C756.432 268.074 756.341 267.701 756.296 267.294C756.251 266.886 756.313 266.451 756.483 265.987C756.652 265.523 756.986 265.042 757.484 264.544C757.733 264.295 757.948 264.114 758.129 264.001C758.298 263.877 758.383 263.815 758.383 263.815L760.929 266.36C760.929 266.36 760.827 266.428 760.623 266.564C760.431 266.688 760.205 266.881 759.945 267.141C759.141 267.944 758.762 268.764 758.807 269.602C758.841 270.427 759.351 271.333 760.335 272.317L764.187 276.169L761.608 278.749Z" fill="#444444"/>
<path d="M208 423.5C208.276 423.5 208.5 423.276 208.5 423V418.5C208.5 418.224 208.276 418 208 418C207.724 418 207.5 418.224 207.5 418.5L207.5 422.5H203.5C203.224 422.5 203 422.724 203 423C203 423.276 203.224 423.5 203.5 423.5H208ZM0.646447 216.354L207.646 423.354L208.354 422.646L1.35355 215.646L0.646447 216.354Z" fill="#444444"/>
<path d="M208 8.5C208.276 8.5 208.5 8.72385 208.5 9V13.5C208.5 13.7761 208.276 14 208 14C207.724 14 207.5 13.7761 207.5 13.5L207.5 9.5L203.5 9.5C203.224 9.5 203 9.27614 203 9C203 8.72385 203.224 8.5 203.5 8.5H208ZM0.646447 215.646L207.646 8.64644L208.354 9.35355L1.35355 216.354L0.646447 215.646Z" fill="#444444"/>
<path d="M643 8.5C643.276 8.5 643.5 8.72385 643.5 9V13.5C643.5 13.7761 643.276 14 643 14C642.724 14 642.5 13.7761 642.5 13.5V9.5L638.5 9.5C638.224 9.5 638 9.27614 638 9C638 8.72385 638.224 8.5 638.5 8.5H643ZM435.646 215.646L642.646 8.64644L643.354 9.35355L436.354 216.354L435.646 215.646Z" fill="#444444"/>
<path d="M644 423.5C644.276 423.5 644.5 423.276 644.5 423V418.5C644.5 418.224 644.276 418 644 418C643.724 418 643.5 418.224 643.5 418.5V422.5H639.5C639.224 422.5 639 422.724 639 423C639 423.276 639.224 423.5 639.5 423.5H644ZM436.646 216.354L643.646 423.354L644.354 422.646L437.354 215.646L436.646 216.354Z" fill="#444444"/>
<path d="M859.5 227C859.5 226.724 859.276 226.5 859 226.5H854.5C854.224 226.5 854 226.724 854 227C854 227.276 854.224 227.5 854.5 227.5L858.5 227.5V231.5C858.5 231.776 858.724 232 859 232C859.276 232 859.5 231.776 859.5 231.5V227ZM652.354 434.354L859.354 227.354L858.646 226.646L651.646 433.646L652.354 434.354Z" fill="#444444"/>
<path d="M427.5 224C427.5 223.724 427.276 223.5 427 223.5H422.5C422.224 223.5 422 223.724 422 224C422 224.276 422.224 224.5 422.5 224.5L426.5 224.5V228.5C426.5 228.776 426.724 229 427 229C427.276 229 427.5 228.776 427.5 228.5V224ZM220.354 431.354L427.354 224.354L426.646 223.646L219.646 430.646L220.354 431.354Z" fill="#444444"/>
<path d="M427.5 208C427.5 208.276 427.276 208.5 427 208.5H422.5C422.224 208.5 422 208.276 422 208C422 207.724 422.224 207.5 422.5 207.5L426.5 207.5V203.5C426.5 203.224 426.724 203 427 203C427.276 203 427.5 203.224 427.5 203.5V208ZM220.354 0.646447L427.354 207.646L426.646 208.354L219.646 1.35355L220.354 0.646447Z" fill="#444444"/>
<path d="M862.5 208C862.5 208.276 862.276 208.5 862 208.5H857.5C857.224 208.5 857 208.276 857 208C857 207.724 857.224 207.5 857.5 207.5L861.5 207.5V203.5C861.5 203.224 861.724 203 862 203C862.276 203 862.5 203.224 862.5 203.5V208ZM655.354 0.646447L862.354 207.646L861.646 208.354L654.646 1.35355L655.354 0.646447Z" fill="#444444"/>
<line x1="214.5" y1="18" x2="214.5" y2="403" stroke="#444444" stroke-dasharray="2 2"/>
<line x1="655.5" y1="18" x2="655.5" y2="403" stroke="#444444" stroke-dasharray="2 2"/>
</svg>
