<svg width="545" height="545" viewBox="0 0 545 545" fill="none" xmlns="http://www.w3.org/2000/svg">
<ellipse cx="272.5" cy="268.5" rx="268.5" ry="268.5" transform="rotate(-90 272.5 268.5)" fill="#0077BB" fill-opacity="0.07"/>
<g filter="url(#filter0_d_785_13478)">
<path d="M272.499 3.00005C294.771 3.00005 316.954 5.80245 338.527 11.3412" stroke="#0077BB" stroke-width="6"/>
</g>
<g filter="url(#filter1_d_785_13478)">
<path d="M336.73 10.8865C402.253 27.2233 459.089 67.9138 495.67 124.676C532.251 181.439 545.828 250.008 533.637 316.428C521.447 382.848 484.406 442.126 430.052 482.199C375.698 522.272 308.117 540.128 241.063 532.132C174.009 524.137 112.522 490.89 69.1151 439.16C25.7083 387.43 3.64441 321.103 7.41396 253.679C11.1835 186.256 40.5032 122.802 89.4058 76.2325C138.308 29.6631 203.119 3.47799 270.646 3.00652" stroke="#FF8800" stroke-width="6"/>
</g>
<path d="M237.26 279V259.2L194.06 259.08V246.6L234.14 190.2H251.3V247.2H266.18V259.2H251.3V279H237.26ZM208.22 247.2H237.26V206.04L208.22 247.2ZM289.807 226.56C286.207 226.56 282.967 225.76 280.087 224.16C277.207 222.56 274.927 220.36 273.247 217.56C271.567 214.68 270.727 211.36 270.727 207.6C270.727 203.92 271.567 200.68 273.247 197.88C274.927 195.08 277.207 192.92 280.087 191.4C282.967 189.8 286.207 189 289.807 189C293.487 189 296.767 189.8 299.647 191.4C302.527 192.92 304.807 195.08 306.487 197.88C308.167 200.68 309.007 203.92 309.007 207.6C309.007 211.36 308.167 214.68 306.487 217.56C304.807 220.36 302.527 222.56 299.647 224.16C296.767 225.76 293.487 226.56 289.807 226.56ZM285.247 279L333.007 190.2H345.247L297.487 279H285.247ZM289.807 217.2C292.367 217.2 294.527 216.36 296.287 214.68C298.047 212.92 298.927 210.6 298.927 207.72C298.927 204.84 298.047 202.56 296.287 200.88C294.527 199.2 292.367 198.36 289.807 198.36C287.327 198.36 285.167 199.2 283.327 200.88C281.567 202.56 280.687 204.84 280.687 207.72C280.687 210.6 281.567 212.92 283.327 214.68C285.167 216.36 287.327 217.2 289.807 217.2ZM340.687 280.2C337.087 280.2 333.807 279.44 330.847 277.92C327.967 276.32 325.687 274.12 324.007 271.32C322.407 268.44 321.607 265.16 321.607 261.48C321.607 257.72 322.407 254.44 324.007 251.64C325.687 248.84 327.967 246.64 330.847 245.04C333.807 243.44 337.087 242.64 340.687 242.64C344.287 242.64 347.527 243.44 350.407 245.04C353.287 246.64 355.567 248.84 357.247 251.64C358.927 254.44 359.767 257.72 359.767 261.48C359.767 265.16 358.927 268.4 357.247 271.2C355.647 274 353.407 276.2 350.527 277.8C347.647 279.4 344.367 280.2 340.687 280.2ZM340.687 270.96C343.167 270.96 345.287 270.12 347.047 268.44C348.887 266.68 349.807 264.36 349.807 261.48C349.807 258.6 348.887 256.32 347.047 254.64C345.287 252.88 343.167 252 340.687 252C338.127 252 335.967 252.88 334.207 254.64C332.447 256.32 331.567 258.6 331.567 261.48C331.567 264.36 332.447 266.68 334.207 268.44C335.967 270.12 338.127 270.96 340.687 270.96Z" fill="#444444"/>
<path d="M122.549 351.36C120.413 351.36 118.529 350.976 116.897 350.208C115.265 349.416 113.897 348.372 112.793 347.076C111.689 345.756 110.861 344.28 110.309 342.648C109.757 341.016 109.481 339.348 109.481 337.644C109.481 335.94 109.757 334.284 110.309 332.676C110.861 331.044 111.689 329.58 112.793 328.284C113.897 326.988 115.265 325.956 116.897 325.188C118.529 324.396 120.413 324 122.549 324C124.709 324 126.605 324.396 128.237 325.188C129.869 325.956 131.237 326.988 132.341 328.284C133.445 329.58 134.273 331.044 134.825 332.676C135.377 334.284 135.653 335.94 135.653 337.644C135.653 339.348 135.377 341.016 134.825 342.648C134.273 344.28 133.445 345.756 132.341 347.076C131.237 348.372 129.869 349.416 128.237 350.208C126.605 350.976 124.709 351.36 122.549 351.36ZM122.549 347.508C124.469 347.508 126.077 347.04 127.373 346.104C128.669 345.144 129.653 343.92 130.325 342.432C130.997 340.92 131.333 339.324 131.333 337.644C131.333 336.396 131.141 335.196 130.757 334.044C130.373 332.868 129.809 331.812 129.065 330.876C128.345 329.94 127.433 329.208 126.329 328.68C125.249 328.128 123.989 327.852 122.549 327.852C121.133 327.852 119.873 328.128 118.769 328.68C117.689 329.208 116.777 329.94 116.033 330.876C115.313 331.812 114.761 332.868 114.377 334.044C113.993 335.196 113.801 336.396 113.801 337.644C113.801 339.324 114.137 340.92 114.809 342.432C115.481 343.92 116.465 345.144 117.761 346.104C119.057 347.04 120.653 347.508 122.549 347.508ZM139.474 351V331.92H143.578V334.692H143.794C143.962 334.356 144.25 333.948 144.658 333.468C145.066 332.964 145.63 332.52 146.35 332.136C147.094 331.752 148.03 331.56 149.158 331.56C150.574 331.56 151.762 331.884 152.722 332.532C153.682 333.18 154.402 334.044 154.882 335.124C155.386 336.204 155.638 337.392 155.638 338.688V351H151.534V339.12C151.534 337.968 151.21 336.996 150.562 336.204C149.938 335.412 149.002 335.016 147.754 335.016C146.77 335.016 145.966 335.268 145.342 335.772C144.742 336.252 144.298 336.888 144.01 337.68C143.722 338.448 143.578 339.276 143.578 340.164V351H139.474ZM160.392 351L160.428 323.64H164.496V351H160.392ZM170.243 358.02C169.643 358.02 169.151 357.996 168.767 357.948C168.383 357.9 168.191 357.876 168.191 357.876V354.456C168.191 354.456 168.383 354.468 168.767 354.492C169.151 354.54 169.571 354.564 170.027 354.564C171.347 354.564 172.427 354.312 173.267 353.808C174.131 353.328 174.863 352.476 175.463 351.252L168.191 331.92H172.367L177.515 346.212L182.663 331.92H186.911L179.711 350.784C178.751 353.256 177.527 355.08 176.039 356.256C174.551 357.432 172.619 358.02 170.243 358.02ZM205.32 351.36C203.808 351.36 202.56 351.156 201.576 350.748C200.616 350.316 199.848 349.8 199.272 349.2C198.696 348.576 198.264 347.952 197.976 347.328C197.712 346.704 197.544 346.188 197.472 345.78C197.4 345.348 197.364 345.132 197.364 345.132H201.36C201.36 345.132 201.396 345.288 201.468 345.6C201.564 345.888 201.744 346.224 202.008 346.608C202.272 346.992 202.68 347.34 203.232 347.652C203.784 347.94 204.516 348.084 205.428 348.084C206.532 348.084 207.348 347.832 207.876 347.328C208.428 346.824 208.704 346.248 208.704 345.6C208.704 344.976 208.476 344.484 208.02 344.124C207.564 343.764 206.916 343.488 206.076 343.296L203.484 342.72C202.476 342.48 201.528 342.156 200.64 341.748C199.776 341.316 199.068 340.752 198.516 340.056C197.988 339.336 197.724 338.412 197.724 337.284C197.724 335.628 198.348 334.26 199.596 333.18C200.844 332.1 202.524 331.56 204.636 331.56C206.004 331.56 207.132 331.752 208.02 332.136C208.932 332.52 209.652 333 210.18 333.576C210.708 334.128 211.104 334.692 211.368 335.268C211.632 335.82 211.8 336.288 211.872 336.672C211.968 337.032 212.016 337.212 212.016 337.212H208.164C208.164 337.212 208.128 337.092 208.056 336.852C207.984 336.612 207.828 336.336 207.588 336.024C207.348 335.688 206.988 335.4 206.508 335.16C206.052 334.896 205.428 334.764 204.636 334.764C203.556 334.764 202.776 335.004 202.296 335.484C201.816 335.964 201.576 336.48 201.576 337.032C201.576 337.608 201.804 338.064 202.26 338.4C202.74 338.712 203.364 338.952 204.132 339.12L206.688 339.696C208.392 340.08 209.796 340.716 210.9 341.604C212.004 342.468 212.556 343.728 212.556 345.384C212.556 346.488 212.268 347.496 211.692 348.408C211.14 349.296 210.324 350.016 209.244 350.568C208.164 351.096 206.856 351.36 205.32 351.36ZM216.249 351V331.92H220.353V334.62H220.497C220.713 334.236 221.025 333.804 221.433 333.324C221.865 332.844 222.429 332.436 223.125 332.1C223.821 331.74 224.697 331.56 225.753 331.56C227.169 331.56 228.345 331.896 229.281 332.568C230.217 333.24 230.913 334.128 231.369 335.232H231.441C231.945 334.272 232.677 333.42 233.637 332.676C234.597 331.932 235.869 331.56 237.453 331.56C238.797 331.56 239.937 331.884 240.873 332.532C241.809 333.156 242.505 334.008 242.961 335.088C243.441 336.144 243.681 337.344 243.681 338.688V351H239.577V339.264C239.577 338.016 239.277 336.996 238.677 336.204C238.077 335.412 237.189 335.016 236.013 335.016C235.053 335.016 234.273 335.28 233.673 335.808C233.097 336.336 232.677 336.996 232.413 337.788C232.149 338.556 232.017 339.336 232.017 340.128V351H227.913V339.264C227.913 338.016 227.613 336.996 227.013 336.204C226.413 335.412 225.525 335.016 224.349 335.016C223.389 335.016 222.609 335.28 222.009 335.808C221.433 336.336 221.013 336.996 220.749 337.788C220.485 338.556 220.353 339.336 220.353 340.128V351H216.249ZM256.23 331.56C257.43 331.56 258.426 331.752 259.218 332.136C260.034 332.52 260.682 332.964 261.162 333.468C261.642 333.972 261.99 334.404 262.206 334.764H262.422V331.92H266.526V351H262.422V348.156H262.206C261.99 348.516 261.642 348.948 261.162 349.452C260.682 349.956 260.034 350.4 259.218 350.784C258.426 351.168 257.43 351.36 256.23 351.36C254.79 351.36 253.53 351.084 252.45 350.532C251.394 349.956 250.506 349.2 249.786 348.264C249.066 347.304 248.526 346.236 248.166 345.06C247.83 343.884 247.662 342.684 247.662 341.46C247.662 340.236 247.83 339.036 248.166 337.86C248.526 336.684 249.066 335.628 249.786 334.692C250.506 333.732 251.394 332.976 252.45 332.424C253.53 331.848 254.79 331.56 256.23 331.56ZM257.13 334.98C255.954 334.98 254.97 335.304 254.178 335.952C253.386 336.576 252.786 337.38 252.378 338.364C251.994 339.348 251.802 340.38 251.802 341.46C251.802 342.54 251.994 343.572 252.378 344.556C252.786 345.54 253.386 346.356 254.178 347.004C254.97 347.628 255.954 347.94 257.13 347.94C258.306 347.94 259.278 347.628 260.046 347.004C260.838 346.356 261.426 345.54 261.81 344.556C262.218 343.572 262.422 342.54 262.422 341.46C262.422 340.38 262.218 339.348 261.81 338.364C261.426 337.38 260.838 336.576 260.046 335.952C259.278 335.304 258.306 334.98 257.13 334.98ZM271.33 351L271.366 323.64H275.434V351H271.33ZM280.533 351L280.569 323.64H284.637V351H280.533ZM305.556 331.56C306.756 331.56 307.752 331.752 308.544 332.136C309.36 332.52 310.008 332.964 310.488 333.468C310.968 333.972 311.316 334.404 311.532 334.764H311.748V331.92H315.852V351H311.748V348.156H311.532C311.316 348.516 310.968 348.948 310.488 349.452C310.008 349.956 309.36 350.4 308.544 350.784C307.752 351.168 306.756 351.36 305.556 351.36C304.116 351.36 302.856 351.084 301.776 350.532C300.72 349.956 299.832 349.2 299.112 348.264C298.392 347.304 297.852 346.236 297.492 345.06C297.156 343.884 296.988 342.684 296.988 341.46C296.988 340.236 297.156 339.036 297.492 337.86C297.852 336.684 298.392 335.628 299.112 334.692C299.832 333.732 300.72 332.976 301.776 332.424C302.856 331.848 304.116 331.56 305.556 331.56ZM306.456 334.98C305.28 334.98 304.296 335.304 303.504 335.952C302.712 336.576 302.112 337.38 301.704 338.364C301.32 339.348 301.128 340.38 301.128 341.46C301.128 342.54 301.32 343.572 301.704 344.556C302.112 345.54 302.712 346.356 303.504 347.004C304.296 347.628 305.28 347.94 306.456 347.94C307.632 347.94 308.604 347.628 309.372 347.004C310.164 346.356 310.752 345.54 311.136 344.556C311.544 343.572 311.748 342.54 311.748 341.46C311.748 340.38 311.544 339.348 311.136 338.364C310.752 337.38 310.164 336.576 309.372 335.952C308.604 335.304 307.632 334.98 306.456 334.98ZM320.296 351V331.92H324.4V334.62H324.544C324.76 334.236 325.072 333.804 325.48 333.324C325.912 332.844 326.476 332.436 327.172 332.1C327.868 331.74 328.744 331.56 329.8 331.56C331.216 331.56 332.392 331.896 333.328 332.568C334.264 333.24 334.96 334.128 335.416 335.232H335.488C335.992 334.272 336.724 333.42 337.684 332.676C338.644 331.932 339.916 331.56 341.5 331.56C342.844 331.56 343.984 331.884 344.92 332.532C345.856 333.156 346.552 334.008 347.008 335.088C347.488 336.144 347.728 337.344 347.728 338.688V351H343.624V339.264C343.624 338.016 343.324 336.996 342.724 336.204C342.124 335.412 341.236 335.016 340.06 335.016C339.1 335.016 338.32 335.28 337.72 335.808C337.144 336.336 336.724 336.996 336.46 337.788C336.196 338.556 336.064 339.336 336.064 340.128V351H331.96V339.264C331.96 338.016 331.66 336.996 331.06 336.204C330.46 335.412 329.572 335.016 328.396 335.016C327.436 335.016 326.656 335.28 326.056 335.808C325.48 336.336 325.06 336.996 324.796 337.788C324.532 338.556 324.4 339.336 324.4 340.128V351H320.296ZM361.321 351.36C359.233 351.36 357.469 350.892 356.029 349.956C354.613 349.02 353.533 347.796 352.789 346.284C352.069 344.772 351.709 343.164 351.709 341.46C351.709 339.756 352.069 338.148 352.789 336.636C353.533 335.124 354.613 333.9 356.029 332.964C357.469 332.028 359.233 331.56 361.321 331.56C363.385 331.56 365.125 332.028 366.541 332.964C367.981 333.9 369.061 335.124 369.781 336.636C370.525 338.148 370.897 339.756 370.897 341.46C370.897 343.164 370.525 344.772 369.781 346.284C369.061 347.796 367.981 349.02 366.541 349.956C365.125 350.892 363.385 351.36 361.321 351.36ZM361.321 347.868C362.497 347.868 363.481 347.568 364.273 346.968C365.089 346.368 365.701 345.576 366.109 344.592C366.541 343.608 366.757 342.564 366.757 341.46C366.757 340.332 366.541 339.288 366.109 338.328C365.701 337.344 365.089 336.552 364.273 335.952C363.481 335.352 362.497 335.052 361.321 335.052C360.145 335.052 359.149 335.352 358.333 335.952C357.517 336.552 356.905 337.344 356.497 338.328C356.089 339.288 355.885 340.332 355.885 341.46C355.885 342.564 356.089 343.608 356.497 344.592C356.905 345.576 357.517 346.368 358.333 346.968C359.149 347.568 360.145 347.868 361.321 347.868ZM381.102 351.36C379.182 351.36 377.682 350.76 376.602 349.56C375.522 348.36 374.982 346.764 374.982 344.772V331.92H379.086V344.268C379.086 345.42 379.386 346.32 379.986 346.968C380.61 347.592 381.45 347.904 382.506 347.904C383.538 347.904 384.366 347.64 384.99 347.112C385.614 346.584 386.058 345.912 386.322 345.096C386.61 344.256 386.754 343.392 386.754 342.504V331.92H390.858V351H386.754V348.264H386.538C386.346 348.624 386.034 349.056 385.602 349.56C385.194 350.04 384.618 350.46 383.874 350.82C383.154 351.18 382.23 351.36 381.102 351.36ZM395.259 351V331.92H399.363V334.692H399.579C399.747 334.356 400.035 333.948 400.443 333.468C400.851 332.964 401.415 332.52 402.135 332.136C402.879 331.752 403.815 331.56 404.943 331.56C406.359 331.56 407.547 331.884 408.507 332.532C409.467 333.18 410.187 334.044 410.667 335.124C411.171 336.204 411.423 337.392 411.423 338.688V351H407.319V339.12C407.319 337.968 406.995 336.996 406.347 336.204C405.723 335.412 404.787 335.016 403.539 335.016C402.555 335.016 401.751 335.268 401.127 335.772C400.527 336.252 400.083 336.888 399.795 337.68C399.507 338.448 399.363 339.276 399.363 340.164V351H395.259ZM423.606 351.36C422.094 351.36 420.882 351.084 419.97 350.532C419.058 349.98 418.398 349.248 417.99 348.336C417.606 347.4 417.414 346.392 417.414 345.312V335.232H414.066V331.92H417.414V327.168H421.518V331.92H425.982V335.232H421.518V345.24C421.518 347.04 422.514 347.94 424.506 347.94C425.01 347.94 425.478 347.904 425.91 347.832C426.342 347.76 426.558 347.724 426.558 347.724V351.072C426.558 351.072 426.258 351.12 425.658 351.216C425.082 351.312 424.398 351.36 423.606 351.36ZM153.421 392.36C151.333 392.36 149.569 391.892 148.129 390.956C146.713 390.02 145.633 388.796 144.889 387.284C144.169 385.772 143.809 384.164 143.809 382.46C143.809 380.756 144.169 379.148 144.889 377.636C145.633 376.124 146.713 374.9 148.129 373.964C149.569 373.028 151.333 372.56 153.421 372.56C155.485 372.56 157.225 373.028 158.641 373.964C160.081 374.9 161.161 376.124 161.881 377.636C162.625 379.148 162.997 380.756 162.997 382.46C162.997 384.164 162.625 385.772 161.881 387.284C161.161 388.796 160.081 390.02 158.641 390.956C157.225 391.892 155.485 392.36 153.421 392.36ZM153.421 388.868C154.597 388.868 155.581 388.568 156.373 387.968C157.189 387.368 157.801 386.576 158.209 385.592C158.641 384.608 158.857 383.564 158.857 382.46C158.857 381.332 158.641 380.288 158.209 379.328C157.801 378.344 157.189 377.552 156.373 376.952C155.581 376.352 154.597 376.052 153.421 376.052C152.245 376.052 151.249 376.352 150.433 376.952C149.617 377.552 149.005 378.344 148.597 379.328C148.189 380.288 147.985 381.332 147.985 382.46C147.985 383.564 148.189 384.608 148.597 385.592C149.005 386.576 149.617 387.368 150.433 387.968C151.249 388.568 152.245 388.868 153.421 388.868ZM169.173 392V376.232H166.077V372.92H169.173V370.868C169.173 370.124 169.269 369.368 169.461 368.6C169.653 367.832 169.977 367.124 170.433 366.476C170.889 365.804 171.513 365.276 172.305 364.892C173.097 364.484 174.093 364.28 175.293 364.28C175.989 364.28 176.565 364.34 177.021 364.46C177.477 364.556 177.705 364.604 177.705 364.604V367.7C177.705 367.7 177.525 367.664 177.165 367.592C176.829 367.52 176.445 367.484 176.013 367.484C174.957 367.484 174.237 367.808 173.853 368.456C173.469 369.08 173.277 369.884 173.277 370.868V372.92H177.525V376.232H173.277V392H169.173ZM194.805 392.36C192.885 392.36 191.385 391.76 190.305 390.56C189.225 389.36 188.685 387.764 188.685 385.772V372.92H192.789V385.268C192.789 386.42 193.089 387.32 193.689 387.968C194.313 388.592 195.153 388.904 196.209 388.904C197.241 388.904 198.069 388.64 198.693 388.112C199.317 387.584 199.761 386.912 200.025 386.096C200.313 385.256 200.457 384.392 200.457 383.504V372.92H204.561V392H200.457V389.264H200.241C200.049 389.624 199.737 390.056 199.305 390.56C198.897 391.04 198.321 391.46 197.577 391.82C196.857 392.18 195.933 392.36 194.805 392.36ZM216.306 392.36C214.794 392.36 213.546 392.156 212.562 391.748C211.602 391.316 210.834 390.8 210.258 390.2C209.682 389.576 209.25 388.952 208.962 388.328C208.698 387.704 208.53 387.188 208.458 386.78C208.386 386.348 208.35 386.132 208.35 386.132H212.346C212.346 386.132 212.382 386.288 212.454 386.6C212.55 386.888 212.73 387.224 212.994 387.608C213.258 387.992 213.666 388.34 214.218 388.652C214.77 388.94 215.502 389.084 216.414 389.084C217.518 389.084 218.334 388.832 218.862 388.328C219.414 387.824 219.69 387.248 219.69 386.6C219.69 385.976 219.462 385.484 219.006 385.124C218.55 384.764 217.902 384.488 217.062 384.296L214.47 383.72C213.462 383.48 212.514 383.156 211.626 382.748C210.762 382.316 210.054 381.752 209.502 381.056C208.974 380.336 208.71 379.412 208.71 378.284C208.71 376.628 209.334 375.26 210.582 374.18C211.83 373.1 213.51 372.56 215.622 372.56C216.99 372.56 218.118 372.752 219.006 373.136C219.918 373.52 220.638 374 221.166 374.576C221.694 375.128 222.09 375.692 222.354 376.268C222.618 376.82 222.786 377.288 222.858 377.672C222.954 378.032 223.002 378.212 223.002 378.212H219.15C219.15 378.212 219.114 378.092 219.042 377.852C218.97 377.612 218.814 377.336 218.574 377.024C218.334 376.688 217.974 376.4 217.494 376.16C217.038 375.896 216.414 375.764 215.622 375.764C214.542 375.764 213.762 376.004 213.282 376.484C212.802 376.964 212.562 377.48 212.562 378.032C212.562 378.608 212.79 379.064 213.246 379.4C213.726 379.712 214.35 379.952 215.118 380.12L217.674 380.696C219.378 381.08 220.782 381.716 221.886 382.604C222.99 383.468 223.542 384.728 223.542 386.384C223.542 387.488 223.254 388.496 222.678 389.408C222.126 390.296 221.31 391.016 220.23 391.568C219.15 392.096 217.842 392.36 216.306 392.36ZM235.918 392.36C234.31 392.36 232.918 392.084 231.742 391.532C230.59 390.956 229.63 390.2 228.862 389.264C228.118 388.304 227.554 387.236 227.17 386.06C226.81 384.884 226.63 383.684 226.63 382.46C226.63 381.26 226.81 380.072 227.17 378.896C227.53 377.72 228.082 376.652 228.826 375.692C229.57 374.732 230.518 373.976 231.67 373.424C232.822 372.848 234.178 372.56 235.738 372.56C237.418 372.56 238.894 372.944 240.166 373.712C241.462 374.456 242.47 375.572 243.19 377.06C243.934 378.524 244.306 380.348 244.306 382.532V383.648H230.77C230.866 385.112 231.358 386.372 232.246 387.428C233.134 388.484 234.358 389.012 235.918 389.012C236.806 389.012 237.538 388.868 238.114 388.58C238.69 388.268 239.134 387.92 239.446 387.536C239.758 387.152 239.974 386.816 240.094 386.528C240.238 386.24 240.31 386.096 240.31 386.096H244.126C244.126 386.096 244.066 386.312 243.946 386.744C243.826 387.152 243.598 387.668 243.262 388.292C242.95 388.916 242.494 389.54 241.894 390.164C241.294 390.788 240.502 391.316 239.518 391.748C238.534 392.156 237.334 392.36 235.918 392.36ZM230.806 380.768H240.346C240.25 379.088 239.746 377.852 238.834 377.06C237.946 376.268 236.902 375.872 235.702 375.872C234.358 375.872 233.242 376.316 232.354 377.204C231.466 378.068 230.95 379.256 230.806 380.768ZM248.391 392V372.92H252.495V375.44H252.639C252.999 374.696 253.563 374.036 254.331 373.46C255.123 372.86 256.263 372.56 257.751 372.56C258.207 372.56 258.591 372.584 258.903 372.632C259.239 372.68 259.407 372.704 259.407 372.704V376.664C259.407 376.664 259.227 376.64 258.867 376.592C258.507 376.544 258.099 376.52 257.643 376.52C255.963 376.52 254.679 377 253.791 377.96C252.927 378.896 252.495 380.42 252.495 382.532V392H248.391ZM269.929 392.36C268.417 392.36 267.169 392.156 266.185 391.748C265.225 391.316 264.457 390.8 263.881 390.2C263.305 389.576 262.873 388.952 262.585 388.328C262.321 387.704 262.153 387.188 262.081 386.78C262.009 386.348 261.973 386.132 261.973 386.132H265.969C265.969 386.132 266.005 386.288 266.077 386.6C266.173 386.888 266.353 387.224 266.617 387.608C266.881 387.992 267.289 388.34 267.841 388.652C268.393 388.94 269.125 389.084 270.037 389.084C271.141 389.084 271.957 388.832 272.485 388.328C273.037 387.824 273.313 387.248 273.313 386.6C273.313 385.976 273.085 385.484 272.629 385.124C272.173 384.764 271.525 384.488 270.685 384.296L268.093 383.72C267.085 383.48 266.137 383.156 265.249 382.748C264.385 382.316 263.677 381.752 263.125 381.056C262.597 380.336 262.333 379.412 262.333 378.284C262.333 376.628 262.957 375.26 264.205 374.18C265.453 373.1 267.133 372.56 269.245 372.56C270.613 372.56 271.741 372.752 272.629 373.136C273.541 373.52 274.261 374 274.789 374.576C275.317 375.128 275.713 375.692 275.977 376.268C276.241 376.82 276.409 377.288 276.481 377.672C276.577 378.032 276.625 378.212 276.625 378.212H272.773C272.773 378.212 272.737 378.092 272.665 377.852C272.593 377.612 272.437 377.336 272.197 377.024C271.957 376.688 271.597 376.4 271.117 376.16C270.661 375.896 270.037 375.764 269.245 375.764C268.165 375.764 267.385 376.004 266.905 376.484C266.425 376.964 266.185 377.48 266.185 378.032C266.185 378.608 266.413 379.064 266.869 379.4C267.349 379.712 267.973 379.952 268.741 380.12L271.297 380.696C273.001 381.08 274.405 381.716 275.509 382.604C276.613 383.468 277.165 384.728 277.165 386.384C277.165 387.488 276.877 388.496 276.301 389.408C275.749 390.296 274.933 391.016 273.853 391.568C272.773 392.096 271.465 392.36 269.929 392.36ZM294.915 392.36C292.995 392.36 291.495 391.76 290.415 390.56C289.335 389.36 288.795 387.764 288.795 385.772V372.92H292.899V385.268C292.899 386.42 293.199 387.32 293.799 387.968C294.423 388.592 295.263 388.904 296.319 388.904C297.351 388.904 298.179 388.64 298.803 388.112C299.427 387.584 299.871 386.912 300.135 386.096C300.423 385.256 300.567 384.392 300.567 383.504V372.92H304.671V392H300.567V389.264H300.351C300.159 389.624 299.847 390.056 299.415 390.56C299.007 391.04 298.431 391.46 297.687 391.82C296.967 392.18 296.043 392.36 294.915 392.36ZM316.416 392.36C314.904 392.36 313.656 392.156 312.672 391.748C311.712 391.316 310.944 390.8 310.368 390.2C309.792 389.576 309.36 388.952 309.072 388.328C308.808 387.704 308.64 387.188 308.568 386.78C308.496 386.348 308.46 386.132 308.46 386.132H312.456C312.456 386.132 312.492 386.288 312.564 386.6C312.66 386.888 312.84 387.224 313.104 387.608C313.368 387.992 313.776 388.34 314.328 388.652C314.88 388.94 315.612 389.084 316.524 389.084C317.628 389.084 318.444 388.832 318.972 388.328C319.524 387.824 319.8 387.248 319.8 386.6C319.8 385.976 319.572 385.484 319.116 385.124C318.66 384.764 318.012 384.488 317.172 384.296L314.58 383.72C313.572 383.48 312.624 383.156 311.736 382.748C310.872 382.316 310.164 381.752 309.612 381.056C309.084 380.336 308.82 379.412 308.82 378.284C308.82 376.628 309.444 375.26 310.692 374.18C311.94 373.1 313.62 372.56 315.732 372.56C317.1 372.56 318.228 372.752 319.116 373.136C320.028 373.52 320.748 374 321.276 374.576C321.804 375.128 322.2 375.692 322.464 376.268C322.728 376.82 322.896 377.288 322.968 377.672C323.064 378.032 323.112 378.212 323.112 378.212H319.26C319.26 378.212 319.224 378.092 319.152 377.852C319.08 377.612 318.924 377.336 318.684 377.024C318.444 376.688 318.084 376.4 317.604 376.16C317.148 375.896 316.524 375.764 315.732 375.764C314.652 375.764 313.872 376.004 313.392 376.484C312.912 376.964 312.672 377.48 312.672 378.032C312.672 378.608 312.9 379.064 313.356 379.4C313.836 379.712 314.46 379.952 315.228 380.12L317.784 380.696C319.488 381.08 320.892 381.716 321.996 382.604C323.1 383.468 323.652 384.728 323.652 386.384C323.652 387.488 323.364 388.496 322.788 389.408C322.236 390.296 321.42 391.016 320.34 391.568C319.26 392.096 317.952 392.36 316.416 392.36ZM336.027 392.36C334.419 392.36 333.027 392.084 331.851 391.532C330.699 390.956 329.739 390.2 328.971 389.264C328.227 388.304 327.663 387.236 327.279 386.06C326.919 384.884 326.739 383.684 326.739 382.46C326.739 381.26 326.919 380.072 327.279 378.896C327.639 377.72 328.191 376.652 328.935 375.692C329.679 374.732 330.627 373.976 331.779 373.424C332.931 372.848 334.287 372.56 335.847 372.56C337.527 372.56 339.003 372.944 340.275 373.712C341.571 374.456 342.579 375.572 343.299 377.06C344.043 378.524 344.415 380.348 344.415 382.532V383.648H330.879C330.975 385.112 331.467 386.372 332.355 387.428C333.243 388.484 334.467 389.012 336.027 389.012C336.915 389.012 337.647 388.868 338.223 388.58C338.799 388.268 339.243 387.92 339.555 387.536C339.867 387.152 340.083 386.816 340.203 386.528C340.347 386.24 340.419 386.096 340.419 386.096H344.235C344.235 386.096 344.175 386.312 344.055 386.744C343.935 387.152 343.707 387.668 343.371 388.292C343.059 388.916 342.603 389.54 342.003 390.164C341.403 390.788 340.611 391.316 339.627 391.748C338.643 392.156 337.443 392.36 336.027 392.36ZM330.915 380.768H340.455C340.359 379.088 339.855 377.852 338.943 377.06C338.055 376.268 337.011 375.872 335.811 375.872C334.467 375.872 333.351 376.316 332.463 377.204C331.575 378.068 331.059 379.256 330.915 380.768ZM356.568 392.36C355.128 392.36 353.868 392.084 352.788 391.532C351.732 390.956 350.844 390.2 350.124 389.264C349.404 388.304 348.864 387.236 348.504 386.06C348.168 384.884 348 383.684 348 382.46C348 381.236 348.168 380.036 348.504 378.86C348.864 377.684 349.404 376.628 350.124 375.692C350.844 374.732 351.732 373.976 352.788 373.424C353.868 372.848 355.128 372.56 356.568 372.56C357.768 372.56 358.764 372.752 359.556 373.136C360.372 373.52 361.02 373.964 361.5 374.468C361.98 374.972 362.328 375.404 362.544 375.764H362.76V364.64H366.864V392H362.76V389.156H362.544C362.328 389.516 361.98 389.948 361.5 390.452C361.02 390.956 360.372 391.4 359.556 391.784C358.764 392.168 357.768 392.36 356.568 392.36ZM357.468 388.94C358.644 388.94 359.616 388.628 360.384 388.004C361.176 387.356 361.764 386.54 362.148 385.556C362.556 384.572 362.76 383.54 362.76 382.46C362.76 381.38 362.556 380.348 362.148 379.364C361.764 378.38 361.176 377.576 360.384 376.952C359.616 376.304 358.644 375.98 357.468 375.98C356.292 375.98 355.308 376.304 354.516 376.952C353.724 377.576 353.124 378.38 352.716 379.364C352.332 380.348 352.14 381.38 352.14 382.46C352.14 383.54 352.332 384.572 352.716 385.556C353.124 386.54 353.724 387.356 354.516 388.004C355.308 388.628 356.292 388.94 357.468 388.94ZM382.117 369.644C381.373 369.644 380.761 369.392 380.281 368.888C379.801 368.384 379.561 367.796 379.561 367.124C379.561 366.428 379.801 365.84 380.281 365.36C380.761 364.856 381.373 364.604 382.117 364.604C382.861 364.604 383.473 364.856 383.953 365.36C384.457 365.84 384.709 366.428 384.709 367.124C384.709 367.82 384.457 368.42 383.953 368.924C383.473 369.404 382.861 369.644 382.117 369.644ZM380.101 392V372.92H384.205V392H380.101ZM397.467 392.36C395.955 392.36 394.743 392.084 393.831 391.532C392.919 390.98 392.259 390.248 391.851 389.336C391.467 388.4 391.275 387.392 391.275 386.312V376.232H387.927V372.92H391.275V368.168H395.379V372.92H399.843V376.232H395.379V386.24C395.379 388.04 396.375 388.94 398.367 388.94C398.871 388.94 399.339 388.904 399.771 388.832C400.203 388.76 400.419 388.724 400.419 388.724V392.072C400.419 392.072 400.119 392.12 399.519 392.216C398.943 392.312 398.259 392.36 397.467 392.36Z" fill="#444444"/>
<circle cx="340.933" cy="11.9333" r="11.9333" fill="#0077BB"/>
<defs>
<filter id="filter0_d_785_13478" x="268.5" y="0" width="74.7734" height="22.2471" filterUnits="userSpaceOnUse" color-interpolation-filters="sRGB">
<feFlood flood-opacity="0" result="BackgroundImageFix"/>
<feColorMatrix in="SourceAlpha" type="matrix" values="0 0 0 0 0 0 0 0 0 0 0 0 0 0 0 0 0 0 127 0" result="hardAlpha"/>
<feOffset dy="4"/>
<feGaussianBlur stdDeviation="2"/>
<feComposite in2="hardAlpha" operator="out"/>
<feColorMatrix type="matrix" values="0 0 0 0 0 0 0 0 0 0 0 0 0 0 0 0 0 0 0.25 0"/>
<feBlend mode="normal" in2="BackgroundImageFix" result="effect1_dropShadow_785_13478"/>
<feBlend mode="normal" in="SourceGraphic" in2="effect1_dropShadow_785_13478" result="shape"/>
</filter>
<filter id="filter1_d_785_13478" x="0" y="0.00634766" width="545" height="544.994" filterUnits="userSpaceOnUse" color-interpolation-filters="sRGB">
<feFlood flood-opacity="0" result="BackgroundImageFix"/>
<feColorMatrix in="SourceAlpha" type="matrix" values="0 0 0 0 0 0 0 0 0 0 0 0 0 0 0 0 0 0 127 0" result="hardAlpha"/>
<feOffset dy="4"/>
<feGaussianBlur stdDeviation="2"/>
<feComposite in2="hardAlpha" operator="out"/>
<feColorMatrix type="matrix" values="0 0 0 0 0 0 0 0 0 0 0 0 0 0 0 0 0 0 0.25 0"/>
<feBlend mode="normal" in2="BackgroundImageFix" result="effect1_dropShadow_785_13478"/>
<feBlend mode="normal" in="SourceGraphic" in2="effect1_dropShadow_785_13478" result="shape"/>
</filter>
</defs>
</svg>
