<svg width="545" height="545" viewBox="0 0 545 545" fill="none" xmlns="http://www.w3.org/2000/svg">
<ellipse cx="272.5" cy="268.5" rx="268.5" ry="268.5" transform="rotate(-90 272.5 268.5)" fill="#0077BB" fill-opacity="0.07"/>
<g filter="url(#filter0_d_785_13478)">
<path d="M272.499 3.00005C294.771 3.00005 316.954 5.80245 338.527 11.3412" stroke="#0077BB" stroke-width="6"/>
</g>
<g filter="url(#filter1_d_785_13478)">
<path d="M336.73 10.8865C402.253 27.2233 459.089 67.9138 495.67 124.676C532.251 181.439 545.828 250.008 533.637 316.428C521.447 382.848 484.406 442.126 430.052 482.199C375.698 522.272 308.117 540.128 241.063 532.132C174.009 524.137 112.522 490.89 69.1151 439.16C25.7083 387.43 3.64441 321.103 7.41396 253.679C11.1835 186.256 40.5032 122.802 89.4058 76.2325C138.308 29.6631 203.119 3.47799 270.646 3.00652" stroke="#FF8800" stroke-width="6"/>
</g>
<path d="M229.037 276V251.58L175.757 251.432V236.04L225.189 166.48H246.353V236.78H264.705V251.58H246.353V276H229.037ZM193.221 236.78H229.037V186.016L193.221 236.78ZM293.845 211.324C289.405 211.324 285.409 210.337 281.857 208.364C278.305 206.391 275.493 203.677 273.421 200.224C271.349 196.672 270.313 192.577 270.313 187.94C270.313 183.401 271.349 179.405 273.421 175.952C275.493 172.499 278.305 169.835 281.857 167.96C285.409 165.987 289.405 165 293.845 165C298.384 165 302.429 165.987 305.981 167.96C309.533 169.835 312.345 172.499 314.417 175.952C316.489 179.405 317.525 183.401 317.525 187.94C317.525 192.577 316.489 196.672 314.417 200.224C312.345 203.677 309.533 206.391 305.981 208.364C302.429 210.337 298.384 211.324 293.845 211.324ZM288.221 276L347.125 166.48H362.221L303.317 276H288.221ZM293.845 199.78C297.002 199.78 299.666 198.744 301.837 196.672C304.008 194.501 305.093 191.64 305.093 188.088C305.093 184.536 304.008 181.724 301.837 179.652C299.666 177.58 297.002 176.544 293.845 176.544C290.786 176.544 288.122 177.58 285.853 179.652C283.682 181.724 282.597 184.536 282.597 188.088C282.597 191.64 283.682 194.501 285.853 196.672C288.122 198.744 290.786 199.78 293.845 199.78ZM356.597 277.48C352.157 277.48 348.112 276.543 344.461 274.668C340.909 272.695 338.097 269.981 336.025 266.528C334.052 262.976 333.065 258.931 333.065 254.392C333.065 249.755 334.052 245.709 336.025 242.256C338.097 238.803 340.909 236.089 344.461 234.116C348.112 232.143 352.157 231.156 356.597 231.156C361.037 231.156 365.033 232.143 368.585 234.116C372.137 236.089 374.949 238.803 377.021 242.256C379.093 245.709 380.129 249.755 380.129 254.392C380.129 258.931 379.093 262.927 377.021 266.38C375.048 269.833 372.285 272.547 368.733 274.52C365.181 276.493 361.136 277.48 356.597 277.48ZM356.597 266.084C359.656 266.084 362.27 265.048 364.441 262.976C366.71 260.805 367.845 257.944 367.845 254.392C367.845 250.84 366.71 248.028 364.441 245.956C362.27 243.785 359.656 242.7 356.597 242.7C353.44 242.7 350.776 243.785 348.605 245.956C346.434 248.028 345.349 250.84 345.349 254.392C345.349 257.944 346.434 260.805 348.605 262.976C350.776 265.048 353.44 266.084 356.597 266.084Z" fill="#767676"/>
<path d="M82.8928 351.36C80.7568 351.36 78.8728 350.976 77.2408 350.208C75.6088 349.416 74.2408 348.372 73.1368 347.076C72.0328 345.756 71.2048 344.28 70.6528 342.648C70.1008 341.016 69.8248 339.348 69.8248 337.644C69.8248 335.94 70.1008 334.284 70.6528 332.676C71.2048 331.044 72.0328 329.58 73.1368 328.284C74.2408 326.988 75.6088 325.956 77.2408 325.188C78.8728 324.396 80.7568 324 82.8928 324C85.0528 324 86.9488 324.396 88.5808 325.188C90.2128 325.956 91.5808 326.988 92.6848 328.284C93.7888 329.58 94.6168 331.044 95.1688 332.676C95.7208 334.284 95.9968 335.94 95.9968 337.644C95.9968 339.348 95.7208 341.016 95.1688 342.648C94.6168 344.28 93.7888 345.756 92.6848 347.076C91.5808 348.372 90.2128 349.416 88.5808 350.208C86.9488 350.976 85.0528 351.36 82.8928 351.36ZM82.8928 347.508C84.8128 347.508 86.4208 347.04 87.7168 346.104C89.0128 345.144 89.9968 343.92 90.6688 342.432C91.3408 340.92 91.6768 339.324 91.6768 337.644C91.6768 336.396 91.4848 335.196 91.1008 334.044C90.7168 332.868 90.1528 331.812 89.4088 330.876C88.6888 329.94 87.7768 329.208 86.6728 328.68C85.5928 328.128 84.3328 327.852 82.8928 327.852C81.4768 327.852 80.2168 328.128 79.1128 328.68C78.0328 329.208 77.1208 329.94 76.3768 330.876C75.6568 331.812 75.1048 332.868 74.7208 334.044C74.3368 335.196 74.1448 336.396 74.1448 337.644C74.1448 339.324 74.4808 340.92 75.1528 342.432C75.8248 343.92 76.8088 345.144 78.1048 346.104C79.4008 347.04 80.9968 347.508 82.8928 347.508ZM100.178 351V324.36H103.994L117.062 343.512V324.36H121.274V351H117.422L104.354 332.028V351H100.178ZM126.396 351V324.36H130.608V347.328H144.072V351H126.396ZM150.68 351V341.64L141.356 324.36H145.964L152.768 337.356L159.608 324.36H164.216L154.856 341.64V351H150.68ZM184.631 351.36C183.047 351.36 181.679 351.156 180.527 350.748C179.399 350.34 178.463 349.824 177.719 349.2C176.975 348.552 176.375 347.868 175.919 347.148C175.487 346.428 175.163 345.756 174.947 345.132C174.731 344.484 174.587 343.956 174.515 343.548C174.443 343.14 174.407 342.936 174.407 342.936H178.691C178.691 342.936 178.727 343.104 178.799 343.44C178.871 343.752 179.015 344.148 179.231 344.628C179.447 345.084 179.771 345.552 180.203 346.032C180.659 346.488 181.247 346.884 181.967 347.22C182.711 347.532 183.647 347.688 184.775 347.688C186.455 347.688 187.763 347.292 188.699 346.5C189.659 345.708 190.139 344.7 190.139 343.476C190.139 342.42 189.779 341.604 189.059 341.028C188.363 340.428 187.331 339.972 185.963 339.66L182.435 338.832C181.115 338.544 179.891 338.124 178.763 337.572C177.659 336.996 176.759 336.228 176.063 335.268C175.391 334.308 175.055 333.096 175.055 331.632C175.055 330.048 175.439 328.692 176.207 327.564C176.999 326.412 178.079 325.536 179.447 324.936C180.839 324.312 182.423 324 184.199 324C185.927 324 187.355 324.264 188.483 324.792C189.611 325.296 190.511 325.92 191.183 326.664C191.855 327.408 192.347 328.164 192.659 328.932C192.995 329.676 193.211 330.312 193.307 330.84C193.403 331.344 193.451 331.596 193.451 331.596H189.347C189.347 331.596 189.299 331.404 189.203 331.02C189.107 330.612 188.879 330.144 188.519 329.616C188.183 329.088 187.655 328.632 186.935 328.248C186.239 327.84 185.291 327.636 184.091 327.636C182.435 327.636 181.199 328.02 180.383 328.788C179.567 329.556 179.159 330.408 179.159 331.344C179.159 332.256 179.507 332.988 180.203 333.54C180.899 334.068 181.835 334.464 183.011 334.728L186.791 335.628C188.183 335.94 189.443 336.408 190.571 337.032C191.723 337.656 192.635 338.484 193.307 339.516C193.979 340.524 194.315 341.76 194.315 343.224C194.315 344.712 193.943 346.08 193.199 347.328C192.479 348.552 191.399 349.536 189.959 350.28C188.519 351 186.743 351.36 184.631 351.36ZM198.222 351V324.36H203.802L211.038 339.516L218.382 324.36H223.89V351H219.75V330.624L213.018 344.376H209.094L202.362 330.552V351H198.222ZM227.714 351L237.002 324.36H242.402L251.726 351H247.298L245.246 345.024H234.194L232.142 351H227.714ZM235.454 341.28H243.986L239.738 328.86L235.454 341.28ZM255.545 351V324.36H259.757V347.328H273.221V351H255.545ZM277.861 351V324.36H282.073V347.328H295.537V351H277.861ZM306.817 351L316.105 324.36H321.505L330.829 351H326.401L324.349 345.024H313.297L311.245 351H306.817ZM314.557 341.28H323.089L318.841 328.86L314.557 341.28ZM334.648 351V324.36H340.228L347.464 339.516L354.808 324.36H360.316V351H356.176V330.624L349.444 344.376H345.52L338.788 330.552V351H334.648ZM377.568 351.36C375.432 351.36 373.548 350.976 371.916 350.208C370.284 349.416 368.916 348.372 367.812 347.076C366.708 345.756 365.88 344.28 365.328 342.648C364.776 341.016 364.5 339.348 364.5 337.644C364.5 335.94 364.776 334.284 365.328 332.676C365.88 331.044 366.708 329.58 367.812 328.284C368.916 326.988 370.284 325.956 371.916 325.188C373.548 324.396 375.432 324 377.568 324C379.728 324 381.624 324.396 383.256 325.188C384.888 325.956 386.256 326.988 387.36 328.284C388.464 329.58 389.292 331.044 389.844 332.676C390.396 334.284 390.672 335.94 390.672 337.644C390.672 339.348 390.396 341.016 389.844 342.648C389.292 344.28 388.464 345.756 387.36 347.076C386.256 348.372 384.888 349.416 383.256 350.208C381.624 350.976 379.728 351.36 377.568 351.36ZM377.568 347.508C379.488 347.508 381.096 347.04 382.392 346.104C383.688 345.144 384.672 343.92 385.344 342.432C386.016 340.92 386.352 339.324 386.352 337.644C386.352 336.396 386.16 335.196 385.776 334.044C385.392 332.868 384.828 331.812 384.084 330.876C383.364 329.94 382.452 329.208 381.348 328.68C380.268 328.128 379.008 327.852 377.568 327.852C376.152 327.852 374.892 328.128 373.788 328.68C372.708 329.208 371.796 329.94 371.052 330.876C370.332 331.812 369.78 332.868 369.396 334.044C369.012 335.196 368.82 336.396 368.82 337.644C368.82 339.324 369.156 340.92 369.828 342.432C370.5 343.92 371.484 345.144 372.78 346.104C374.076 347.04 375.672 347.508 377.568 347.508ZM405.222 351.36C403.182 351.36 401.382 350.976 399.822 350.208C398.262 349.416 397.038 348.276 396.15 346.788C395.286 345.276 394.854 343.428 394.854 341.244V324.36H399.066V341.244C399.066 342.972 399.57 344.436 400.578 345.636C401.586 346.812 403.134 347.4 405.222 347.4C407.334 347.4 408.894 346.812 409.902 345.636C410.91 344.436 411.414 342.972 411.414 341.244V324.36H415.626V341.244C415.626 343.428 415.182 345.276 414.294 346.788C413.43 348.276 412.206 349.416 410.622 350.208C409.062 350.976 407.262 351.36 405.222 351.36ZM420.72 351V324.36H424.536L437.604 343.512V324.36H441.816V351H437.964L424.896 332.028V351H420.72ZM454.03 351V328.032H445.75V324.36H466.486V328.032H458.206V351H454.03ZM125.089 392.36C122.953 392.36 121.069 391.976 119.437 391.208C117.805 390.416 116.437 389.372 115.333 388.076C114.229 386.756 113.401 385.28 112.849 383.648C112.297 382.016 112.021 380.348 112.021 378.644C112.021 376.94 112.297 375.284 112.849 373.676C113.401 372.044 114.229 370.58 115.333 369.284C116.437 367.988 117.805 366.956 119.437 366.188C121.069 365.396 122.953 365 125.089 365C127.249 365 129.145 365.396 130.777 366.188C132.409 366.956 133.777 367.988 134.881 369.284C135.985 370.58 136.813 372.044 137.365 373.676C137.917 375.284 138.193 376.94 138.193 378.644C138.193 380.348 137.917 382.016 137.365 383.648C136.813 385.28 135.985 386.756 134.881 388.076C133.777 389.372 132.409 390.416 130.777 391.208C129.145 391.976 127.249 392.36 125.089 392.36ZM125.089 388.508C127.009 388.508 128.617 388.04 129.913 387.104C131.209 386.144 132.193 384.92 132.865 383.432C133.537 381.92 133.873 380.324 133.873 378.644C133.873 377.396 133.681 376.196 133.297 375.044C132.913 373.868 132.349 372.812 131.605 371.876C130.885 370.94 129.973 370.208 128.869 369.68C127.789 369.128 126.529 368.852 125.089 368.852C123.673 368.852 122.413 369.128 121.309 369.68C120.229 370.208 119.317 370.94 118.573 371.876C117.853 372.812 117.301 373.868 116.917 375.044C116.533 376.196 116.341 377.396 116.341 378.644C116.341 380.324 116.677 381.92 117.349 383.432C118.021 384.92 119.005 386.144 120.301 387.104C121.597 388.04 123.193 388.508 125.089 388.508ZM142.375 392V365.36H160.303V369.032H146.587V377.204H158.647V380.84H146.587V392H142.375ZM183.242 392.36C181.202 392.36 179.402 391.976 177.842 391.208C176.282 390.416 175.058 389.276 174.17 387.788C173.306 386.276 172.874 384.428 172.874 382.244V365.36H177.086V382.244C177.086 383.972 177.59 385.436 178.598 386.636C179.606 387.812 181.154 388.4 183.242 388.4C185.354 388.4 186.914 387.812 187.922 386.636C188.93 385.436 189.434 383.972 189.434 382.244V365.36H193.646V382.244C193.646 384.428 193.202 386.276 192.314 387.788C191.45 389.276 190.226 390.416 188.642 391.208C187.082 391.976 185.282 392.36 183.242 392.36ZM207.992 392.36C206.408 392.36 205.04 392.156 203.888 391.748C202.76 391.34 201.824 390.824 201.08 390.2C200.336 389.552 199.736 388.868 199.28 388.148C198.848 387.428 198.524 386.756 198.308 386.132C198.092 385.484 197.948 384.956 197.876 384.548C197.804 384.14 197.768 383.936 197.768 383.936H202.052C202.052 383.936 202.088 384.104 202.16 384.44C202.232 384.752 202.376 385.148 202.592 385.628C202.808 386.084 203.132 386.552 203.564 387.032C204.02 387.488 204.608 387.884 205.328 388.22C206.072 388.532 207.008 388.688 208.136 388.688C209.816 388.688 211.124 388.292 212.06 387.5C213.02 386.708 213.5 385.7 213.5 384.476C213.5 383.42 213.14 382.604 212.42 382.028C211.724 381.428 210.692 380.972 209.324 380.66L205.796 379.832C204.476 379.544 203.252 379.124 202.124 378.572C201.02 377.996 200.12 377.228 199.424 376.268C198.752 375.308 198.416 374.096 198.416 372.632C198.416 371.048 198.8 369.692 199.568 368.564C200.36 367.412 201.44 366.536 202.808 365.936C204.2 365.312 205.784 365 207.56 365C209.288 365 210.716 365.264 211.844 365.792C212.972 366.296 213.872 366.92 214.544 367.664C215.216 368.408 215.708 369.164 216.02 369.932C216.356 370.676 216.572 371.312 216.668 371.84C216.764 372.344 216.812 372.596 216.812 372.596H212.708C212.708 372.596 212.66 372.404 212.564 372.02C212.468 371.612 212.24 371.144 211.88 370.616C211.544 370.088 211.016 369.632 210.296 369.248C209.6 368.84 208.652 368.636 207.452 368.636C205.796 368.636 204.56 369.02 203.744 369.788C202.928 370.556 202.52 371.408 202.52 372.344C202.52 373.256 202.868 373.988 203.564 374.54C204.26 375.068 205.196 375.464 206.372 375.728L210.152 376.628C211.544 376.94 212.804 377.408 213.932 378.032C215.084 378.656 215.996 379.484 216.668 380.516C217.34 381.524 217.676 382.76 217.676 384.224C217.676 385.712 217.304 387.08 216.56 388.328C215.84 389.552 214.76 390.536 213.32 391.28C211.88 392 210.104 392.36 207.992 392.36ZM221.583 392V365.36H238.971V369.032H225.795V376.628H237.315V380.264H225.795V388.328H239.151V392H221.583ZM243.794 392V365.36H253.694C255.59 365.36 257.186 365.732 258.482 366.476C259.802 367.196 260.798 368.156 261.47 369.356C262.142 370.532 262.478 371.816 262.478 373.208C262.478 374.888 261.998 376.412 261.038 377.78C260.102 379.148 258.722 380.108 256.898 380.66L263.306 392H258.59L252.542 381.128H248.006V392H243.794ZM253.622 369.032H248.006V377.6H253.622C255.134 377.6 256.274 377.168 257.042 376.304C257.81 375.416 258.194 374.42 258.194 373.316C258.194 372.212 257.81 371.228 257.042 370.364C256.274 369.476 255.134 369.032 253.622 369.032ZM276.838 392.36C275.254 392.36 273.886 392.156 272.734 391.748C271.606 391.34 270.67 390.824 269.926 390.2C269.182 389.552 268.582 388.868 268.126 388.148C267.694 387.428 267.37 386.756 267.154 386.132C266.938 385.484 266.794 384.956 266.722 384.548C266.65 384.14 266.614 383.936 266.614 383.936H270.898C270.898 383.936 270.934 384.104 271.006 384.44C271.078 384.752 271.222 385.148 271.438 385.628C271.654 386.084 271.978 386.552 272.41 387.032C272.866 387.488 273.454 387.884 274.174 388.22C274.918 388.532 275.854 388.688 276.982 388.688C278.662 388.688 279.97 388.292 280.906 387.5C281.866 386.708 282.346 385.7 282.346 384.476C282.346 383.42 281.986 382.604 281.266 382.028C280.57 381.428 279.538 380.972 278.17 380.66L274.642 379.832C273.322 379.544 272.098 379.124 270.97 378.572C269.866 377.996 268.966 377.228 268.27 376.268C267.598 375.308 267.262 374.096 267.262 372.632C267.262 371.048 267.646 369.692 268.414 368.564C269.206 367.412 270.286 366.536 271.654 365.936C273.046 365.312 274.63 365 276.406 365C278.134 365 279.562 365.264 280.69 365.792C281.818 366.296 282.718 366.92 283.39 367.664C284.062 368.408 284.554 369.164 284.866 369.932C285.202 370.676 285.418 371.312 285.514 371.84C285.61 372.344 285.658 372.596 285.658 372.596H281.554C281.554 372.596 281.506 372.404 281.41 372.02C281.314 371.612 281.086 371.144 280.726 370.616C280.39 370.088 279.862 369.632 279.142 369.248C278.446 368.84 277.498 368.636 276.298 368.636C274.642 368.636 273.406 369.02 272.59 369.788C271.774 370.556 271.366 371.408 271.366 372.344C271.366 373.256 271.714 373.988 272.41 374.54C273.106 375.068 274.042 375.464 275.218 375.728L278.998 376.628C280.39 376.94 281.65 377.408 282.778 378.032C283.93 378.656 284.842 379.484 285.514 380.516C286.186 381.524 286.522 382.76 286.522 384.224C286.522 385.712 286.15 387.08 285.406 388.328C284.686 389.552 283.606 390.536 282.166 391.28C280.726 392 278.95 392.36 276.838 392.36ZM308.734 392.36C306.694 392.36 304.894 391.976 303.334 391.208C301.774 390.416 300.55 389.276 299.662 387.788C298.798 386.276 298.366 384.428 298.366 382.244V365.36H302.578V382.244C302.578 383.972 303.082 385.436 304.09 386.636C305.098 387.812 306.646 388.4 308.734 388.4C310.846 388.4 312.406 387.812 313.414 386.636C314.422 385.436 314.926 383.972 314.926 382.244V365.36H319.138V382.244C319.138 384.428 318.694 386.276 317.806 387.788C316.942 389.276 315.718 390.416 314.134 391.208C312.574 391.976 310.774 392.36 308.734 392.36ZM333.484 392.36C331.9 392.36 330.532 392.156 329.38 391.748C328.252 391.34 327.316 390.824 326.572 390.2C325.828 389.552 325.228 388.868 324.772 388.148C324.34 387.428 324.016 386.756 323.8 386.132C323.584 385.484 323.44 384.956 323.368 384.548C323.296 384.14 323.26 383.936 323.26 383.936H327.544C327.544 383.936 327.58 384.104 327.652 384.44C327.724 384.752 327.868 385.148 328.084 385.628C328.3 386.084 328.624 386.552 329.056 387.032C329.512 387.488 330.1 387.884 330.82 388.22C331.564 388.532 332.5 388.688 333.628 388.688C335.308 388.688 336.616 388.292 337.552 387.5C338.512 386.708 338.992 385.7 338.992 384.476C338.992 383.42 338.632 382.604 337.912 382.028C337.216 381.428 336.184 380.972 334.816 380.66L331.288 379.832C329.968 379.544 328.744 379.124 327.616 378.572C326.512 377.996 325.612 377.228 324.916 376.268C324.244 375.308 323.908 374.096 323.908 372.632C323.908 371.048 324.292 369.692 325.06 368.564C325.852 367.412 326.932 366.536 328.3 365.936C329.692 365.312 331.276 365 333.052 365C334.78 365 336.208 365.264 337.336 365.792C338.464 366.296 339.364 366.92 340.036 367.664C340.708 368.408 341.2 369.164 341.512 369.932C341.848 370.676 342.064 371.312 342.16 371.84C342.256 372.344 342.304 372.596 342.304 372.596H338.2C338.2 372.596 338.152 372.404 338.056 372.02C337.96 371.612 337.732 371.144 337.372 370.616C337.036 370.088 336.508 369.632 335.788 369.248C335.092 368.84 334.144 368.636 332.944 368.636C331.288 368.636 330.052 369.02 329.236 369.788C328.42 370.556 328.012 371.408 328.012 372.344C328.012 373.256 328.36 373.988 329.056 374.54C329.752 375.068 330.688 375.464 331.864 375.728L335.644 376.628C337.036 376.94 338.296 377.408 339.424 378.032C340.576 378.656 341.488 379.484 342.16 380.516C342.832 381.524 343.168 382.76 343.168 384.224C343.168 385.712 342.796 387.08 342.052 388.328C341.332 389.552 340.252 390.536 338.812 391.28C337.372 392 335.596 392.36 333.484 392.36ZM347.076 392V365.36H364.464V369.032H351.288V376.628H362.808V380.264H351.288V388.328H364.644V392H347.076ZM369.286 392V365.36H378.394C380.53 365.36 382.402 365.744 384.01 366.512C385.618 367.256 386.95 368.264 388.006 369.536C389.086 370.808 389.89 372.236 390.418 373.82C390.97 375.404 391.246 377.024 391.246 378.68C391.246 380.336 390.97 381.956 390.418 383.54C389.89 385.124 389.086 386.552 388.006 387.824C386.95 389.096 385.618 390.116 384.01 390.884C382.402 391.628 380.53 392 378.394 392H369.286ZM378.214 369.032H373.498V388.292H378.214C379.702 388.292 380.998 388.028 382.102 387.5C383.206 386.948 384.118 386.216 384.838 385.304C385.558 384.368 386.098 383.336 386.458 382.208C386.842 381.056 387.034 379.88 387.034 378.68C387.034 377.48 386.842 376.304 386.458 375.152C386.098 374 385.558 372.968 384.838 372.056C384.118 371.144 383.206 370.412 382.102 369.86C380.998 369.308 379.702 369.032 378.214 369.032ZM403.371 392V365.36H407.583V392H403.371ZM419.771 392V369.032H411.491V365.36H432.227V369.032H423.947V392H419.771Z" fill="#767676"/>
<circle cx="340.933" cy="11.9333" r="11.9333" fill="#0077BB"/>
<defs>
<filter id="filter0_d_785_13478" x="268.5" y="0" width="74.7734" height="22.2471" filterUnits="userSpaceOnUse" color-interpolation-filters="sRGB">
<feFlood flood-opacity="0" result="BackgroundImageFix"/>
<feColorMatrix in="SourceAlpha" type="matrix" values="0 0 0 0 0 0 0 0 0 0 0 0 0 0 0 0 0 0 127 0" result="hardAlpha"/>
<feOffset dy="4"/>
<feGaussianBlur stdDeviation="2"/>
<feComposite in2="hardAlpha" operator="out"/>
<feColorMatrix type="matrix" values="0 0 0 0 0 0 0 0 0 0 0 0 0 0 0 0 0 0 0.25 0"/>
<feBlend mode="normal" in2="BackgroundImageFix" result="effect1_dropShadow_785_13478"/>
<feBlend mode="normal" in="SourceGraphic" in2="effect1_dropShadow_785_13478" result="shape"/>
</filter>
<filter id="filter1_d_785_13478" x="0" y="0.00634766" width="545" height="544.994" filterUnits="userSpaceOnUse" color-interpolation-filters="sRGB">
<feFlood flood-opacity="0" result="BackgroundImageFix"/>
<feColorMatrix in="SourceAlpha" type="matrix" values="0 0 0 0 0 0 0 0 0 0 0 0 0 0 0 0 0 0 127 0" result="hardAlpha"/>
<feOffset dy="4"/>
<feGaussianBlur stdDeviation="2"/>
<feComposite in2="hardAlpha" operator="out"/>
<feColorMatrix type="matrix" values="0 0 0 0 0 0 0 0 0 0 0 0 0 0 0 0 0 0 0.25 0"/>
<feBlend mode="normal" in2="BackgroundImageFix" result="effect1_dropShadow_785_13478"/>
<feBlend mode="normal" in="SourceGraphic" in2="effect1_dropShadow_785_13478" result="shape"/>
</filter>
</defs>
</svg>
