<svg width="547" height="545" viewBox="0 0 547 545" fill="none" xmlns="http://www.w3.org/2000/svg">
<ellipse cx="274.5" cy="268.5" rx="268.5" ry="268.5" transform="rotate(-90 274.5 268.5)" fill="#0077BB" fill-opacity="0.07"/>
<g filter="url(#filter0_d_788_12207)">
<path d="M274.499 3.00005C324.881 3.00005 374.223 17.3351 416.761 44.331C459.3 71.3268 493.279 109.869 514.731 155.456C536.182 201.042 544.22 251.792 537.905 301.776C531.591 351.76 511.185 398.916 479.07 437.736C446.956 476.556 404.459 505.437 356.543 521.005C308.628 536.574 257.271 538.188 208.472 525.659C159.674 513.129 115.447 486.974 80.9587 450.247C46.4701 413.521 23.1433 367.739 13.7027 318.25" stroke="#0077BB" stroke-width="6"/>
</g>
<g filter="url(#filter1_d_788_12207)">
<path d="M13.878 319.16C6.42079 280.796 7.52516 241.259 17.1122 203.371C26.6993 165.483 44.5326 130.179 69.3391 99.9791C94.1456 69.7792 125.313 45.4282 160.617 28.6645C195.921 11.9009 234.491 3.13809 273.573 3.00167" stroke="#FF8800" stroke-width="6"/>
</g>
<g filter="url(#filter2_d_788_12207)">
<path d="M112.034 264.72V247.08H94.2736V235.92H112.034V218.16H123.194V235.92H140.834V247.08H123.194V264.72H112.034ZM166.039 279C166.359 271.48 167.359 264.32 169.039 257.52C170.719 250.72 172.799 244.44 175.279 238.68C177.839 232.84 180.519 227.56 183.319 222.84C186.119 218.12 188.799 214.04 191.359 210.6C193.919 207.16 195.999 204.48 197.599 202.56H151.279V190.2H213.439V200.4C213.439 200.4 212.679 201.28 211.159 203.04C209.639 204.72 207.639 207.2 205.159 210.48C202.759 213.76 200.159 217.72 197.359 222.36C194.559 227 191.879 232.24 189.319 238.08C186.839 243.92 184.719 250.28 182.959 257.16C181.199 263.96 180.199 271.24 179.959 279H166.039ZM214.051 279V269.28L232.171 252.84C237.931 247.72 242.931 243.28 247.171 239.52C251.411 235.68 254.691 232.04 257.011 228.6C259.411 225.08 260.611 221.24 260.611 217.08C260.611 213.8 259.811 211 258.211 208.68C256.611 206.36 254.571 204.6 252.091 203.4C249.611 202.12 247.011 201.48 244.291 201.48C241.011 201.48 238.291 202.04 236.131 203.16C234.051 204.2 232.371 205.56 231.091 207.24C229.891 208.84 229.011 210.52 228.451 212.28C227.891 213.96 227.531 215.48 227.371 216.84C227.211 218.12 227.131 218.92 227.131 219.24H213.691C213.691 218.36 213.851 216.76 214.171 214.44C214.571 212.12 215.331 209.56 216.451 206.76C217.651 203.88 219.371 201.08 221.611 198.36C223.931 195.64 226.931 193.4 230.611 191.64C234.371 189.88 239.051 189 244.651 189C250.011 189 254.971 190.08 259.531 192.24C264.091 194.4 267.731 197.56 270.451 201.72C273.251 205.8 274.651 210.76 274.651 216.6C274.651 221.96 273.291 226.84 270.571 231.24C267.931 235.56 264.331 239.84 259.771 244.08C255.291 248.24 250.291 252.72 244.771 257.52L234.811 266.52H276.331V279H214.051ZM283.924 294.6L293.044 279.84C290.804 279.68 288.924 278.84 287.404 277.32C285.964 275.72 285.244 273.76 285.244 271.44C285.244 268.88 286.084 266.84 287.764 265.32C289.524 263.72 291.604 262.92 294.004 262.92C296.484 262.92 298.564 263.72 300.244 265.32C302.004 266.84 302.884 268.96 302.884 271.68C302.884 274.16 301.964 276.96 300.124 280.08C298.364 283.2 295.404 287.64 291.244 293.4L290.404 294.6H283.924ZM345.41 280.2C339.57 280.2 334.49 279.12 330.17 276.96C325.85 274.8 322.29 271.84 319.49 268.08C316.69 264.24 314.61 259.88 313.25 255C311.89 250.12 311.21 245 311.21 239.64C311.21 235.16 311.69 230.56 312.65 225.84C313.69 221.12 315.29 216.56 317.45 212.16C319.69 207.76 322.57 203.84 326.09 200.4C329.61 196.88 333.85 194.12 338.81 192.12C343.77 190.04 349.57 189 356.21 189C359.89 189 363.09 189.28 365.81 189.84C368.53 190.4 369.89 190.68 369.89 190.68V203.28C369.89 203.28 369.17 203.16 367.73 202.92C366.37 202.68 364.61 202.44 362.45 202.2C360.37 201.88 358.25 201.72 356.09 201.72C350.49 201.72 345.77 202.72 341.93 204.72C338.09 206.72 335.01 209.28 332.69 212.4C330.37 215.44 328.65 218.64 327.53 222C326.49 225.36 325.89 228.44 325.73 231.24C326.37 230.12 327.53 228.72 329.21 227.04C330.89 225.36 333.21 223.88 336.17 222.6C339.13 221.24 342.93 220.56 347.57 220.56C354.05 220.56 359.45 222 363.77 224.88C368.09 227.68 371.33 231.32 373.49 235.8C375.73 240.2 376.85 244.84 376.85 249.72C376.85 253.56 376.17 257.28 374.81 260.88C373.53 264.48 371.57 267.76 368.93 270.72C366.37 273.6 363.13 275.92 359.21 277.68C355.29 279.36 350.69 280.2 345.41 280.2ZM345.29 268.44C348.41 268.44 351.33 267.76 354.05 266.4C356.77 264.96 358.97 262.88 360.65 260.16C362.33 257.44 363.17 254.12 363.17 250.2C363.17 246.28 362.33 242.96 360.65 240.24C358.97 237.52 356.77 235.48 354.05 234.12C351.33 232.68 348.41 231.96 345.29 231.96C342.17 231.96 339.25 232.68 336.53 234.12C333.81 235.48 331.61 237.52 329.93 240.24C328.25 242.96 327.41 246.28 327.41 250.2C327.41 254.12 328.25 257.44 329.93 260.16C331.61 262.88 333.81 264.96 336.53 266.4C339.25 267.76 342.17 268.44 345.29 268.44ZM401.513 226.56C397.913 226.56 394.673 225.76 391.793 224.16C388.913 222.56 386.633 220.36 384.953 217.56C383.273 214.68 382.433 211.36 382.433 207.6C382.433 203.92 383.273 200.68 384.953 197.88C386.633 195.08 388.913 192.92 391.793 191.4C394.673 189.8 397.913 189 401.513 189C405.193 189 408.473 189.8 411.353 191.4C414.233 192.92 416.513 195.08 418.193 197.88C419.873 200.68 420.713 203.92 420.713 207.6C420.713 211.36 419.873 214.68 418.193 217.56C416.513 220.36 414.233 222.56 411.353 224.16C408.473 225.76 405.193 226.56 401.513 226.56ZM396.953 279L444.713 190.2H456.953L409.193 279H396.953ZM401.513 217.2C404.073 217.2 406.233 216.36 407.993 214.68C409.753 212.92 410.633 210.6 410.633 207.72C410.633 204.84 409.753 202.56 407.993 200.88C406.233 199.2 404.073 198.36 401.513 198.36C399.033 198.36 396.873 199.2 395.033 200.88C393.273 202.56 392.393 204.84 392.393 207.72C392.393 210.6 393.273 212.92 395.033 214.68C396.873 216.36 399.033 217.2 401.513 217.2ZM452.393 280.2C448.793 280.2 445.513 279.44 442.553 277.92C439.673 276.32 437.393 274.12 435.713 271.32C434.113 268.44 433.313 265.16 433.313 261.48C433.313 257.72 434.113 254.44 435.713 251.64C437.393 248.84 439.673 246.64 442.553 245.04C445.513 243.44 448.793 242.64 452.393 242.64C455.993 242.64 459.233 243.44 462.113 245.04C464.993 246.64 467.273 248.84 468.953 251.64C470.633 254.44 471.473 257.72 471.473 261.48C471.473 265.16 470.633 268.4 468.953 271.2C467.353 274 465.113 276.2 462.233 277.8C459.353 279.4 456.073 280.2 452.393 280.2ZM452.393 270.96C454.873 270.96 456.993 270.12 458.753 268.44C460.593 266.68 461.513 264.36 461.513 261.48C461.513 258.6 460.593 256.32 458.753 254.64C456.993 252.88 454.873 252 452.393 252C449.833 252 447.673 252.88 445.913 254.64C444.153 256.32 443.273 258.6 443.273 261.48C443.273 264.36 444.153 266.68 445.913 268.44C447.673 270.12 449.833 270.96 452.393 270.96Z" fill="black"/>
</g>
<path d="M179.786 351V324.36H183.998V351H179.786ZM189.454 351V331.92H193.558V334.692H193.774C193.942 334.356 194.23 333.948 194.638 333.468C195.046 332.964 195.61 332.52 196.33 332.136C197.074 331.752 198.01 331.56 199.138 331.56C200.554 331.56 201.742 331.884 202.702 332.532C203.662 333.18 204.382 334.044 204.862 335.124C205.366 336.204 205.618 337.392 205.618 338.688V351H201.514V339.12C201.514 337.968 201.19 336.996 200.542 336.204C199.918 335.412 198.982 335.016 197.734 335.016C196.75 335.016 195.946 335.268 195.322 335.772C194.722 336.252 194.278 336.888 193.99 337.68C193.702 338.448 193.558 339.276 193.558 340.164V351H189.454ZM219.913 351.36C218.305 351.36 216.901 351.084 215.701 350.532C214.501 349.956 213.505 349.2 212.713 348.264C211.921 347.304 211.321 346.236 210.913 345.06C210.529 343.884 210.337 342.684 210.337 341.46C210.337 340.236 210.529 339.036 210.913 337.86C211.321 336.684 211.921 335.628 212.713 334.692C213.505 333.732 214.501 332.976 215.701 332.424C216.901 331.848 218.305 331.56 219.913 331.56C221.497 331.56 222.805 331.8 223.837 332.28C224.893 332.736 225.733 333.312 226.357 334.008C226.981 334.704 227.449 335.4 227.761 336.096C228.073 336.792 228.265 337.38 228.337 337.86C228.433 338.34 228.481 338.58 228.481 338.58H224.593C224.593 338.58 224.533 338.4 224.413 338.04C224.317 337.68 224.113 337.26 223.801 336.78C223.489 336.3 223.021 335.88 222.397 335.52C221.797 335.16 220.981 334.98 219.949 334.98C218.725 334.98 217.705 335.292 216.889 335.916C216.073 336.516 215.449 337.308 215.017 338.292C214.609 339.276 214.405 340.332 214.405 341.46C214.405 342.588 214.609 343.644 215.017 344.628C215.449 345.612 216.073 346.416 216.889 347.04C217.705 347.64 218.725 347.94 219.949 347.94C220.981 347.94 221.797 347.76 222.397 347.4C223.021 347.04 223.489 346.62 223.801 346.14C224.113 345.66 224.317 345.24 224.413 344.88C224.533 344.52 224.593 344.34 224.593 344.34H228.481C228.481 344.34 228.433 344.58 228.337 345.06C228.265 345.54 228.073 346.128 227.761 346.824C227.449 347.52 226.981 348.216 226.357 348.912C225.733 349.608 224.893 350.196 223.837 350.676C222.805 351.132 221.497 351.36 219.913 351.36ZM233.275 351V331.92H237.379V334.44H237.523C237.883 333.696 238.447 333.036 239.215 332.46C240.007 331.86 241.147 331.56 242.635 331.56C243.091 331.56 243.475 331.584 243.787 331.632C244.123 331.68 244.291 331.704 244.291 331.704V335.664C244.291 335.664 244.111 335.64 243.751 335.592C243.391 335.544 242.983 335.52 242.527 335.52C240.847 335.52 239.563 336 238.675 336.96C237.811 337.896 237.379 339.42 237.379 341.532V351H233.275ZM255.923 351.36C254.315 351.36 252.923 351.084 251.747 350.532C250.595 349.956 249.635 349.2 248.867 348.264C248.123 347.304 247.559 346.236 247.175 345.06C246.815 343.884 246.635 342.684 246.635 341.46C246.635 340.26 246.815 339.072 247.175 337.896C247.535 336.72 248.087 335.652 248.831 334.692C249.575 333.732 250.523 332.976 251.675 332.424C252.827 331.848 254.183 331.56 255.743 331.56C257.423 331.56 258.899 331.944 260.171 332.712C261.467 333.456 262.475 334.572 263.195 336.06C263.939 337.524 264.311 339.348 264.311 341.532V342.648H250.775C250.871 344.112 251.363 345.372 252.251 346.428C253.139 347.484 254.363 348.012 255.923 348.012C256.811 348.012 257.543 347.868 258.119 347.58C258.695 347.268 259.139 346.92 259.451 346.536C259.763 346.152 259.979 345.816 260.099 345.528C260.243 345.24 260.315 345.096 260.315 345.096H264.131C264.131 345.096 264.071 345.312 263.951 345.744C263.831 346.152 263.603 346.668 263.267 347.292C262.955 347.916 262.499 348.54 261.899 349.164C261.299 349.788 260.507 350.316 259.523 350.748C258.539 351.156 257.339 351.36 255.923 351.36ZM250.811 339.768H260.351C260.255 338.088 259.751 336.852 258.839 336.06C257.951 335.268 256.907 334.872 255.707 334.872C254.363 334.872 253.247 335.316 252.359 336.204C251.471 337.068 250.955 338.256 250.811 339.768ZM277.184 331.56C278.384 331.56 279.38 331.752 280.172 332.136C280.988 332.52 281.636 332.964 282.116 333.468C282.596 333.972 282.944 334.404 283.16 334.764H283.376V331.92H287.48V351H283.376V348.156H283.16C282.944 348.516 282.596 348.948 282.116 349.452C281.636 349.956 280.988 350.4 280.172 350.784C279.38 351.168 278.384 351.36 277.184 351.36C275.744 351.36 274.484 351.084 273.404 350.532C272.348 349.956 271.46 349.2 270.74 348.264C270.02 347.304 269.48 346.236 269.12 345.06C268.784 343.884 268.616 342.684 268.616 341.46C268.616 340.236 268.784 339.036 269.12 337.86C269.48 336.684 270.02 335.628 270.74 334.692C271.46 333.732 272.348 332.976 273.404 332.424C274.484 331.848 275.744 331.56 277.184 331.56ZM278.084 334.98C276.908 334.98 275.924 335.304 275.132 335.952C274.34 336.576 273.74 337.38 273.332 338.364C272.948 339.348 272.756 340.38 272.756 341.46C272.756 342.54 272.948 343.572 273.332 344.556C273.74 345.54 274.34 346.356 275.132 347.004C275.924 347.628 276.908 347.94 278.084 347.94C279.26 347.94 280.232 347.628 281 347.004C281.792 346.356 282.38 345.54 282.764 344.556C283.172 343.572 283.376 342.54 283.376 341.46C283.376 340.38 283.172 339.348 282.764 338.364C282.38 337.38 281.792 336.576 281 335.952C280.232 335.304 279.26 334.98 278.084 334.98ZM299.953 351.36C298.441 351.36 297.193 351.156 296.209 350.748C295.249 350.316 294.481 349.8 293.905 349.2C293.329 348.576 292.897 347.952 292.609 347.328C292.345 346.704 292.177 346.188 292.105 345.78C292.033 345.348 291.997 345.132 291.997 345.132H295.993C295.993 345.132 296.029 345.288 296.101 345.6C296.197 345.888 296.377 346.224 296.641 346.608C296.905 346.992 297.313 347.34 297.865 347.652C298.417 347.94 299.149 348.084 300.061 348.084C301.165 348.084 301.981 347.832 302.509 347.328C303.061 346.824 303.337 346.248 303.337 345.6C303.337 344.976 303.109 344.484 302.653 344.124C302.197 343.764 301.549 343.488 300.709 343.296L298.117 342.72C297.109 342.48 296.161 342.156 295.273 341.748C294.409 341.316 293.701 340.752 293.149 340.056C292.621 339.336 292.357 338.412 292.357 337.284C292.357 335.628 292.981 334.26 294.229 333.18C295.477 332.1 297.157 331.56 299.269 331.56C300.637 331.56 301.765 331.752 302.653 332.136C303.565 332.52 304.285 333 304.813 333.576C305.341 334.128 305.737 334.692 306.001 335.268C306.265 335.82 306.433 336.288 306.505 336.672C306.601 337.032 306.649 337.212 306.649 337.212H302.797C302.797 337.212 302.761 337.092 302.689 336.852C302.617 336.612 302.461 336.336 302.221 336.024C301.981 335.688 301.621 335.4 301.141 335.16C300.685 334.896 300.061 334.764 299.269 334.764C298.189 334.764 297.409 335.004 296.929 335.484C296.449 335.964 296.209 336.48 296.209 337.032C296.209 337.608 296.437 338.064 296.893 338.4C297.373 338.712 297.997 338.952 298.765 339.12L301.321 339.696C303.025 340.08 304.429 340.716 305.533 341.604C306.637 342.468 307.189 343.728 307.189 345.384C307.189 346.488 306.901 347.496 306.325 348.408C305.773 349.296 304.957 350.016 303.877 350.568C302.797 351.096 301.489 351.36 299.953 351.36ZM320.285 351.36C318.677 351.36 317.285 351.084 316.109 350.532C314.957 349.956 313.997 349.2 313.229 348.264C312.485 347.304 311.921 346.236 311.537 345.06C311.177 343.884 310.997 342.684 310.997 341.46C310.997 340.26 311.177 339.072 311.537 337.896C311.897 336.72 312.449 335.652 313.193 334.692C313.937 333.732 314.885 332.976 316.037 332.424C317.189 331.848 318.545 331.56 320.105 331.56C321.785 331.56 323.261 331.944 324.533 332.712C325.829 333.456 326.837 334.572 327.557 336.06C328.301 337.524 328.673 339.348 328.673 341.532V342.648H315.137C315.233 344.112 315.725 345.372 316.613 346.428C317.501 347.484 318.725 348.012 320.285 348.012C321.173 348.012 321.905 347.868 322.481 347.58C323.057 347.268 323.501 346.92 323.813 346.536C324.125 346.152 324.341 345.816 324.461 345.528C324.605 345.24 324.677 345.096 324.677 345.096H328.493C328.493 345.096 328.433 345.312 328.313 345.744C328.193 346.152 327.965 346.668 327.629 347.292C327.317 347.916 326.861 348.54 326.261 349.164C325.661 349.788 324.869 350.316 323.885 350.748C322.901 351.156 321.701 351.36 320.285 351.36ZM315.173 339.768H324.713C324.617 338.088 324.113 336.852 323.201 336.06C322.313 335.268 321.269 334.872 320.069 334.872C318.725 334.872 317.609 335.316 316.721 336.204C315.833 337.068 315.317 338.256 315.173 339.768ZM344.69 328.644C343.946 328.644 343.334 328.392 342.854 327.888C342.374 327.384 342.134 326.796 342.134 326.124C342.134 325.428 342.374 324.84 342.854 324.36C343.334 323.856 343.946 323.604 344.69 323.604C345.434 323.604 346.046 323.856 346.526 324.36C347.03 324.84 347.282 325.428 347.282 326.124C347.282 326.82 347.03 327.42 346.526 327.924C346.046 328.404 345.434 328.644 344.69 328.644ZM342.674 351V331.92H346.778V351H342.674ZM352.408 351V331.92H356.512V334.692H356.728C356.896 334.356 357.184 333.948 357.592 333.468C358 332.964 358.564 332.52 359.284 332.136C360.028 331.752 360.964 331.56 362.092 331.56C363.508 331.56 364.696 331.884 365.656 332.532C366.616 333.18 367.336 334.044 367.816 335.124C368.32 336.204 368.572 337.392 368.572 338.688V351H364.468V339.12C364.468 337.968 364.144 336.996 363.496 336.204C362.872 335.412 361.936 335.016 360.688 335.016C359.704 335.016 358.9 335.268 358.276 335.772C357.676 336.252 357.232 336.888 356.944 337.68C356.656 338.448 356.512 339.276 356.512 340.164V351H352.408ZM191.701 392.36C190.093 392.36 188.689 392.084 187.489 391.532C186.289 390.956 185.293 390.2 184.501 389.264C183.709 388.304 183.109 387.236 182.701 386.06C182.317 384.884 182.125 383.684 182.125 382.46C182.125 381.236 182.317 380.036 182.701 378.86C183.109 377.684 183.709 376.628 184.501 375.692C185.293 374.732 186.289 373.976 187.489 373.424C188.689 372.848 190.093 372.56 191.701 372.56C193.285 372.56 194.593 372.8 195.625 373.28C196.681 373.736 197.521 374.312 198.145 375.008C198.769 375.704 199.237 376.4 199.549 377.096C199.861 377.792 200.053 378.38 200.125 378.86C200.221 379.34 200.269 379.58 200.269 379.58H196.381C196.381 379.58 196.321 379.4 196.201 379.04C196.105 378.68 195.901 378.26 195.589 377.78C195.277 377.3 194.809 376.88 194.185 376.52C193.585 376.16 192.769 375.98 191.737 375.98C190.513 375.98 189.493 376.292 188.677 376.916C187.861 377.516 187.237 378.308 186.805 379.292C186.397 380.276 186.193 381.332 186.193 382.46C186.193 383.588 186.397 384.644 186.805 385.628C187.237 386.612 187.861 387.416 188.677 388.04C189.493 388.64 190.513 388.94 191.737 388.94C192.769 388.94 193.585 388.76 194.185 388.4C194.809 388.04 195.277 387.62 195.589 387.14C195.901 386.66 196.105 386.24 196.201 385.88C196.321 385.52 196.381 385.34 196.381 385.34H200.269C200.269 385.34 200.221 385.58 200.125 386.06C200.053 386.54 199.861 387.128 199.549 387.824C199.237 388.52 198.769 389.216 198.145 389.912C197.521 390.608 196.681 391.196 195.625 391.676C194.593 392.132 193.285 392.36 191.701 392.36ZM205.423 392L205.459 364.64H209.527V392H205.423ZM217.541 369.644C216.797 369.644 216.185 369.392 215.705 368.888C215.225 368.384 214.985 367.796 214.985 367.124C214.985 366.428 215.225 365.84 215.705 365.36C216.185 364.856 216.797 364.604 217.541 364.604C218.285 364.604 218.897 364.856 219.377 365.36C219.881 365.84 220.133 366.428 220.133 367.124C220.133 367.82 219.881 368.42 219.377 368.924C218.897 369.404 218.285 369.644 217.541 369.644ZM215.525 392V372.92H219.629V392H215.525ZM234.512 392.36C232.904 392.36 231.5 392.084 230.3 391.532C229.1 390.956 228.104 390.2 227.312 389.264C226.52 388.304 225.92 387.236 225.512 386.06C225.128 384.884 224.936 383.684 224.936 382.46C224.936 381.236 225.128 380.036 225.512 378.86C225.92 377.684 226.52 376.628 227.312 375.692C228.104 374.732 229.1 373.976 230.3 373.424C231.5 372.848 232.904 372.56 234.512 372.56C236.096 372.56 237.404 372.8 238.436 373.28C239.492 373.736 240.332 374.312 240.956 375.008C241.58 375.704 242.048 376.4 242.36 377.096C242.672 377.792 242.864 378.38 242.936 378.86C243.032 379.34 243.08 379.58 243.08 379.58H239.192C239.192 379.58 239.132 379.4 239.012 379.04C238.916 378.68 238.712 378.26 238.4 377.78C238.088 377.3 237.62 376.88 236.996 376.52C236.396 376.16 235.58 375.98 234.548 375.98C233.324 375.98 232.304 376.292 231.488 376.916C230.672 377.516 230.048 378.308 229.616 379.292C229.208 380.276 229.004 381.332 229.004 382.46C229.004 383.588 229.208 384.644 229.616 385.628C230.048 386.612 230.672 387.416 231.488 388.04C232.304 388.64 233.324 388.94 234.548 388.94C235.58 388.94 236.396 388.76 236.996 388.4C237.62 388.04 238.088 387.62 238.4 387.14C238.712 386.66 238.916 386.24 239.012 385.88C239.132 385.52 239.192 385.34 239.192 385.34H243.08C243.08 385.34 243.032 385.58 242.936 386.06C242.864 386.54 242.672 387.128 242.36 387.824C242.048 388.52 241.58 389.216 240.956 389.912C240.332 390.608 239.492 391.196 238.436 391.676C237.404 392.132 236.096 392.36 234.512 392.36ZM248.233 392V364.64H252.337V380.516L259.501 372.92H264.541L256.225 381.632L264.793 392H259.717L252.337 383V392H248.233ZM277.422 392V372.92H281.526V375.44H281.67C282.03 374.696 282.594 374.036 283.362 373.46C284.154 372.86 285.294 372.56 286.782 372.56C287.238 372.56 287.622 372.584 287.934 372.632C288.27 372.68 288.438 372.704 288.438 372.704V376.664C288.438 376.664 288.258 376.64 287.898 376.592C287.538 376.544 287.13 376.52 286.674 376.52C284.994 376.52 283.71 377 282.822 377.96C281.958 378.896 281.526 380.42 281.526 382.532V392H277.422ZM299.35 372.56C300.55 372.56 301.546 372.752 302.338 373.136C303.154 373.52 303.802 373.964 304.282 374.468C304.762 374.972 305.11 375.404 305.326 375.764H305.542V372.92H309.646V392H305.542V389.156H305.326C305.11 389.516 304.762 389.948 304.282 390.452C303.802 390.956 303.154 391.4 302.338 391.784C301.546 392.168 300.55 392.36 299.35 392.36C297.91 392.36 296.65 392.084 295.57 391.532C294.514 390.956 293.626 390.2 292.906 389.264C292.186 388.304 291.646 387.236 291.286 386.06C290.95 384.884 290.782 383.684 290.782 382.46C290.782 381.236 290.95 380.036 291.286 378.86C291.646 377.684 292.186 376.628 292.906 375.692C293.626 374.732 294.514 373.976 295.57 373.424C296.65 372.848 297.91 372.56 299.35 372.56ZM300.25 375.98C299.074 375.98 298.09 376.304 297.298 376.952C296.506 377.576 295.906 378.38 295.498 379.364C295.114 380.348 294.922 381.38 294.922 382.46C294.922 383.54 295.114 384.572 295.498 385.556C295.906 386.54 296.506 387.356 297.298 388.004C298.09 388.628 299.074 388.94 300.25 388.94C301.426 388.94 302.398 388.628 303.166 388.004C303.958 387.356 304.546 386.54 304.93 385.556C305.338 384.572 305.542 383.54 305.542 382.46C305.542 381.38 305.338 380.348 304.93 379.364C304.546 378.38 303.958 377.576 303.166 376.952C302.398 376.304 301.426 375.98 300.25 375.98ZM322.564 392.36C321.052 392.36 319.84 392.084 318.928 391.532C318.016 390.98 317.356 390.248 316.948 389.336C316.564 388.4 316.372 387.392 316.372 386.312V376.232H313.024V372.92H316.372V368.168H320.476V372.92H324.94V376.232H320.476V386.24C320.476 388.04 321.472 388.94 323.464 388.94C323.968 388.94 324.436 388.904 324.868 388.832C325.3 388.76 325.516 388.724 325.516 388.724V392.072C325.516 392.072 325.216 392.12 324.616 392.216C324.04 392.312 323.356 392.36 322.564 392.36ZM338.477 392.36C336.869 392.36 335.477 392.084 334.301 391.532C333.149 390.956 332.189 390.2 331.421 389.264C330.677 388.304 330.113 387.236 329.729 386.06C329.369 384.884 329.189 383.684 329.189 382.46C329.189 381.26 329.369 380.072 329.729 378.896C330.089 377.72 330.641 376.652 331.385 375.692C332.129 374.732 333.077 373.976 334.229 373.424C335.381 372.848 336.737 372.56 338.297 372.56C339.977 372.56 341.453 372.944 342.725 373.712C344.021 374.456 345.029 375.572 345.749 377.06C346.493 378.524 346.865 380.348 346.865 382.532V383.648H333.329C333.425 385.112 333.917 386.372 334.805 387.428C335.693 388.484 336.917 389.012 338.477 389.012C339.365 389.012 340.097 388.868 340.673 388.58C341.249 388.268 341.693 387.92 342.005 387.536C342.317 387.152 342.533 386.816 342.653 386.528C342.797 386.24 342.869 386.096 342.869 386.096H346.685C346.685 386.096 346.625 386.312 346.505 386.744C346.385 387.152 346.157 387.668 345.821 388.292C345.509 388.916 345.053 389.54 344.453 390.164C343.853 390.788 343.061 391.316 342.077 391.748C341.093 392.156 339.893 392.36 338.477 392.36ZM333.365 380.768H342.905C342.809 379.088 342.305 377.852 341.393 377.06C340.505 376.268 339.461 375.872 338.261 375.872C336.917 375.872 335.801 376.316 334.913 377.204C334.025 378.068 333.509 379.256 333.365 380.768ZM359.014 392.36C357.502 392.36 356.254 392.156 355.27 391.748C354.31 391.316 353.542 390.8 352.966 390.2C352.39 389.576 351.958 388.952 351.67 388.328C351.406 387.704 351.238 387.188 351.166 386.78C351.094 386.348 351.058 386.132 351.058 386.132H355.054C355.054 386.132 355.09 386.288 355.162 386.6C355.258 386.888 355.438 387.224 355.702 387.608C355.966 387.992 356.374 388.34 356.926 388.652C357.478 388.94 358.21 389.084 359.122 389.084C360.226 389.084 361.042 388.832 361.57 388.328C362.122 387.824 362.398 387.248 362.398 386.6C362.398 385.976 362.17 385.484 361.714 385.124C361.258 384.764 360.61 384.488 359.77 384.296L357.178 383.72C356.17 383.48 355.222 383.156 354.334 382.748C353.47 382.316 352.762 381.752 352.21 381.056C351.682 380.336 351.418 379.412 351.418 378.284C351.418 376.628 352.042 375.26 353.29 374.18C354.538 373.1 356.218 372.56 358.33 372.56C359.698 372.56 360.826 372.752 361.714 373.136C362.626 373.52 363.346 374 363.874 374.576C364.402 375.128 364.798 375.692 365.062 376.268C365.326 376.82 365.494 377.288 365.566 377.672C365.662 378.032 365.71 378.212 365.71 378.212H361.858C361.858 378.212 361.822 378.092 361.75 377.852C361.678 377.612 361.522 377.336 361.282 377.024C361.042 376.688 360.682 376.4 360.202 376.16C359.746 375.896 359.122 375.764 358.33 375.764C357.25 375.764 356.47 376.004 355.99 376.484C355.51 376.964 355.27 377.48 355.27 378.032C355.27 378.608 355.498 379.064 355.954 379.4C356.434 379.712 357.058 379.952 357.826 380.12L360.382 380.696C362.086 381.08 363.49 381.716 364.594 382.604C365.698 383.468 366.25 384.728 366.25 386.384C366.25 387.488 365.962 388.496 365.386 389.408C364.834 390.296 364.018 391.016 362.938 391.568C361.858 392.096 360.55 392.36 359.014 392.36Z" fill="black"/>
<circle cx="11.9333" cy="315.933" r="11.9333" fill="#0077BB"/>
<defs>
<filter id="filter0_d_788_12207" x="6.75781" y="0" width="540.242" height="545" filterUnits="userSpaceOnUse" color-interpolation-filters="sRGB">
<feFlood flood-opacity="0" result="BackgroundImageFix"/>
<feColorMatrix in="SourceAlpha" type="matrix" values="0 0 0 0 0 0 0 0 0 0 0 0 0 0 0 0 0 0 127 0" result="hardAlpha"/>
<feOffset dy="4"/>
<feGaussianBlur stdDeviation="2"/>
<feComposite in2="hardAlpha" operator="out"/>
<feColorMatrix type="matrix" values="0 0 0 0 0 0 0 0 0 0 0 0 0 0 0 0 0 0 0.25 0"/>
<feBlend mode="normal" in2="BackgroundImageFix" result="effect1_dropShadow_788_12207"/>
<feBlend mode="normal" in="SourceGraphic" in2="effect1_dropShadow_788_12207" result="shape"/>
</filter>
<filter id="filter1_d_788_12207" x="2" y="0.00170898" width="275.586" height="327.73" filterUnits="userSpaceOnUse" color-interpolation-filters="sRGB">
<feFlood flood-opacity="0" result="BackgroundImageFix"/>
<feColorMatrix in="SourceAlpha" type="matrix" values="0 0 0 0 0 0 0 0 0 0 0 0 0 0 0 0 0 0 127 0" result="hardAlpha"/>
<feOffset dy="4"/>
<feGaussianBlur stdDeviation="2"/>
<feComposite in2="hardAlpha" operator="out"/>
<feColorMatrix type="matrix" values="0 0 0 0 0 0 0 0 0 0 0 0 0 0 0 0 0 0 0.25 0"/>
<feBlend mode="normal" in2="BackgroundImageFix" result="effect1_dropShadow_788_12207"/>
<feBlend mode="normal" in="SourceGraphic" in2="effect1_dropShadow_788_12207" result="shape"/>
</filter>
<filter id="filter2_d_788_12207" x="90.2734" y="189" width="385.203" height="113.6" filterUnits="userSpaceOnUse" color-interpolation-filters="sRGB">
<feFlood flood-opacity="0" result="BackgroundImageFix"/>
<feColorMatrix in="SourceAlpha" type="matrix" values="0 0 0 0 0 0 0 0 0 0 0 0 0 0 0 0 0 0 127 0" result="hardAlpha"/>
<feOffset dy="4"/>
<feGaussianBlur stdDeviation="2"/>
<feComposite in2="hardAlpha" operator="out"/>
<feColorMatrix type="matrix" values="0 0 0 0 0 0 0 0 0 0 0 0 0 0 0 0 0 0 0.25 0"/>
<feBlend mode="normal" in2="BackgroundImageFix" result="effect1_dropShadow_788_12207"/>
<feBlend mode="normal" in="SourceGraphic" in2="effect1_dropShadow_788_12207" result="shape"/>
</filter>
</defs>
</svg>
