<svg width="547" height="545" viewBox="0 0 547 545" fill="none" xmlns="http://www.w3.org/2000/svg">
<ellipse cx="274.5" cy="268.5" rx="268.5" ry="268.5" transform="rotate(-90 274.5 268.5)" fill="#0077BB" fill-opacity="0.07"/>
<g filter="url(#filter0_d_788_12207)">
<path d="M274.499 3.00005C324.881 3.00005 374.223 17.3351 416.761 44.331C459.3 71.3268 493.279 109.869 514.731 155.456C536.182 201.042 544.22 251.792 537.905 301.776C531.591 351.76 511.185 398.916 479.07 437.736C446.956 476.556 404.459 505.437 356.543 521.005C308.628 536.574 257.271 538.188 208.472 525.659C159.674 513.129 115.447 486.974 80.9587 450.247C46.4701 413.521 23.1433 367.739 13.7027 318.25" stroke="#0077BB" stroke-width="6"/>
</g>
<g filter="url(#filter1_d_788_12207)">
<path d="M13.878 319.16C6.42079 280.796 7.52516 241.259 17.1122 203.371C26.6993 165.483 44.5326 130.179 69.3391 99.9791C94.1456 69.7792 125.313 45.4282 160.617 28.6645C195.921 11.9009 234.491 3.13809 273.573 3.00167" stroke="#FF8800" stroke-width="6"/>
</g>
<path d="M112.034 264.72V247.08H94.2736V235.92H112.034V218.16H123.194V235.92H140.834V247.08H123.194V264.72H112.034ZM166.039 279C166.359 271.48 167.359 264.32 169.039 257.52C170.719 250.72 172.799 244.44 175.279 238.68C177.839 232.84 180.519 227.56 183.319 222.84C186.119 218.12 188.799 214.04 191.359 210.6C193.919 207.16 195.999 204.48 197.599 202.56H151.279V190.2H213.439V200.4C213.439 200.4 212.679 201.28 211.159 203.04C209.639 204.72 207.639 207.2 205.159 210.48C202.759 213.76 200.159 217.72 197.359 222.36C194.559 227 191.879 232.24 189.319 238.08C186.839 243.92 184.719 250.28 182.959 257.16C181.199 263.96 180.199 271.24 179.959 279H166.039ZM214.051 279V269.28L232.171 252.84C237.931 247.72 242.931 243.28 247.171 239.52C251.411 235.68 254.691 232.04 257.011 228.6C259.411 225.08 260.611 221.24 260.611 217.08C260.611 213.8 259.811 211 258.211 208.68C256.611 206.36 254.571 204.6 252.091 203.4C249.611 202.12 247.011 201.48 244.291 201.48C241.011 201.48 238.291 202.04 236.131 203.16C234.051 204.2 232.371 205.56 231.091 207.24C229.891 208.84 229.011 210.52 228.451 212.28C227.891 213.96 227.531 215.48 227.371 216.84C227.211 218.12 227.131 218.92 227.131 219.24H213.691C213.691 218.36 213.851 216.76 214.171 214.44C214.571 212.12 215.331 209.56 216.451 206.76C217.651 203.88 219.371 201.08 221.611 198.36C223.931 195.64 226.931 193.4 230.611 191.64C234.371 189.88 239.051 189 244.651 189C250.011 189 254.971 190.08 259.531 192.24C264.091 194.4 267.731 197.56 270.451 201.72C273.251 205.8 274.651 210.76 274.651 216.6C274.651 221.96 273.291 226.84 270.571 231.24C267.931 235.56 264.331 239.84 259.771 244.08C255.291 248.24 250.291 252.72 244.771 257.52L234.811 266.52H276.331V279H214.051ZM283.924 294.6L293.044 279.84C290.804 279.68 288.924 278.84 287.404 277.32C285.964 275.72 285.244 273.76 285.244 271.44C285.244 268.88 286.084 266.84 287.764 265.32C289.524 263.72 291.604 262.92 294.004 262.92C296.484 262.92 298.564 263.72 300.244 265.32C302.004 266.84 302.884 268.96 302.884 271.68C302.884 274.16 301.964 276.96 300.124 280.08C298.364 283.2 295.404 287.64 291.244 293.4L290.404 294.6H283.924ZM345.41 280.2C339.57 280.2 334.49 279.12 330.17 276.96C325.85 274.8 322.29 271.84 319.49 268.08C316.69 264.24 314.61 259.88 313.25 255C311.89 250.12 311.21 245 311.21 239.64C311.21 235.16 311.69 230.56 312.65 225.84C313.69 221.12 315.29 216.56 317.45 212.16C319.69 207.76 322.57 203.84 326.09 200.4C329.61 196.88 333.85 194.12 338.81 192.12C343.77 190.04 349.57 189 356.21 189C359.89 189 363.09 189.28 365.81 189.84C368.53 190.4 369.89 190.68 369.89 190.68V203.28C369.89 203.28 369.17 203.16 367.73 202.92C366.37 202.68 364.61 202.44 362.45 202.2C360.37 201.88 358.25 201.72 356.09 201.72C350.49 201.72 345.77 202.72 341.93 204.72C338.09 206.72 335.01 209.28 332.69 212.4C330.37 215.44 328.65 218.64 327.53 222C326.49 225.36 325.89 228.44 325.73 231.24C326.37 230.12 327.53 228.72 329.21 227.04C330.89 225.36 333.21 223.88 336.17 222.6C339.13 221.24 342.93 220.56 347.57 220.56C354.05 220.56 359.45 222 363.77 224.88C368.09 227.68 371.33 231.32 373.49 235.8C375.73 240.2 376.85 244.84 376.85 249.72C376.85 253.56 376.17 257.28 374.81 260.88C373.53 264.48 371.57 267.76 368.93 270.72C366.37 273.6 363.13 275.92 359.21 277.68C355.29 279.36 350.69 280.2 345.41 280.2ZM345.29 268.44C348.41 268.44 351.33 267.76 354.05 266.4C356.77 264.96 358.97 262.88 360.65 260.16C362.33 257.44 363.17 254.12 363.17 250.2C363.17 246.28 362.33 242.96 360.65 240.24C358.97 237.52 356.77 235.48 354.05 234.12C351.33 232.68 348.41 231.96 345.29 231.96C342.17 231.96 339.25 232.68 336.53 234.12C333.81 235.48 331.61 237.52 329.93 240.24C328.25 242.96 327.41 246.28 327.41 250.2C327.41 254.12 328.25 257.44 329.93 260.16C331.61 262.88 333.81 264.96 336.53 266.4C339.25 267.76 342.17 268.44 345.29 268.44ZM401.513 226.56C397.913 226.56 394.673 225.76 391.793 224.16C388.913 222.56 386.633 220.36 384.953 217.56C383.273 214.68 382.433 211.36 382.433 207.6C382.433 203.92 383.273 200.68 384.953 197.88C386.633 195.08 388.913 192.92 391.793 191.4C394.673 189.8 397.913 189 401.513 189C405.193 189 408.473 189.8 411.353 191.4C414.233 192.92 416.513 195.08 418.193 197.88C419.873 200.68 420.713 203.92 420.713 207.6C420.713 211.36 419.873 214.68 418.193 217.56C416.513 220.36 414.233 222.56 411.353 224.16C408.473 225.76 405.193 226.56 401.513 226.56ZM396.953 279L444.713 190.2H456.953L409.193 279H396.953ZM401.513 217.2C404.073 217.2 406.233 216.36 407.993 214.68C409.753 212.92 410.633 210.6 410.633 207.72C410.633 204.84 409.753 202.56 407.993 200.88C406.233 199.2 404.073 198.36 401.513 198.36C399.033 198.36 396.873 199.2 395.033 200.88C393.273 202.56 392.393 204.84 392.393 207.72C392.393 210.6 393.273 212.92 395.033 214.68C396.873 216.36 399.033 217.2 401.513 217.2ZM452.393 280.2C448.793 280.2 445.513 279.44 442.553 277.92C439.673 276.32 437.393 274.12 435.713 271.32C434.113 268.44 433.313 265.16 433.313 261.48C433.313 257.72 434.113 254.44 435.713 251.64C437.393 248.84 439.673 246.64 442.553 245.04C445.513 243.44 448.793 242.64 452.393 242.64C455.993 242.64 459.233 243.44 462.113 245.04C464.993 246.64 467.273 248.84 468.953 251.64C470.633 254.44 471.473 257.72 471.473 261.48C471.473 265.16 470.633 268.4 468.953 271.2C467.353 274 465.113 276.2 462.233 277.8C459.353 279.4 456.073 280.2 452.393 280.2ZM452.393 270.96C454.873 270.96 456.993 270.12 458.753 268.44C460.593 266.68 461.513 264.36 461.513 261.48C461.513 258.6 460.593 256.32 458.753 254.64C456.993 252.88 454.873 252 452.393 252C449.833 252 447.673 252.88 445.913 254.64C444.153 256.32 443.273 258.6 443.273 261.48C443.273 264.36 444.153 266.68 445.913 268.44C447.673 270.12 449.833 270.96 452.393 270.96Z" fill="#767676"/>
<path d="M161.03 351V324.36H165.242V351H161.03ZM171.058 351V324.36H174.874L187.942 343.512V324.36H192.154V351H188.302L175.234 332.028V351H171.058ZM209.876 351.36C207.74 351.36 205.868 350.976 204.26 350.208C202.676 349.416 201.344 348.372 200.264 347.076C199.208 345.756 198.404 344.292 197.852 342.684C197.324 341.052 197.06 339.384 197.06 337.68C197.06 335.976 197.324 334.308 197.852 332.676C198.404 331.044 199.208 329.58 200.264 328.284C201.344 326.964 202.676 325.92 204.26 325.152C205.868 324.384 207.74 324 209.876 324C211.628 324 213.128 324.228 214.376 324.684C215.648 325.14 216.704 325.728 217.544 326.448C218.408 327.144 219.092 327.888 219.596 328.68C220.124 329.472 220.508 330.228 220.748 330.948C221.012 331.668 221.192 332.256 221.288 332.712C221.384 333.144 221.432 333.36 221.432 333.36H217.22C217.22 333.36 217.172 333.18 217.076 332.82C217.004 332.436 216.824 331.968 216.536 331.416C216.272 330.864 215.864 330.324 215.312 329.796C214.784 329.244 214.076 328.788 213.188 328.428C212.324 328.044 211.232 327.852 209.912 327.852C208.496 327.852 207.248 328.128 206.168 328.68C205.112 329.232 204.224 329.976 203.504 330.912C202.784 331.848 202.244 332.904 201.884 334.08C201.548 335.256 201.38 336.456 201.38 337.68C201.38 338.904 201.548 340.104 201.884 341.28C202.244 342.432 202.784 343.488 203.504 344.448C204.224 345.384 205.112 346.128 206.168 346.68C207.248 347.232 208.496 347.508 209.912 347.508C211.232 347.508 212.324 347.328 213.188 346.968C214.076 346.584 214.784 346.116 215.312 345.564C215.864 345.012 216.272 344.46 216.536 343.908C216.824 343.356 217.004 342.9 217.076 342.54C217.172 342.156 217.22 341.964 217.22 341.964H221.432C221.432 341.964 221.384 342.192 221.288 342.648C221.192 343.104 221.012 343.692 220.748 344.412C220.508 345.108 220.124 345.864 219.596 346.68C219.092 347.472 218.408 348.228 217.544 348.948C216.704 349.644 215.648 350.22 214.376 350.676C213.128 351.132 211.628 351.36 209.876 351.36ZM226.34 351V324.36H236.24C238.136 324.36 239.732 324.732 241.028 325.476C242.348 326.196 243.344 327.156 244.016 328.356C244.688 329.532 245.024 330.816 245.024 332.208C245.024 333.888 244.544 335.412 243.584 336.78C242.648 338.148 241.268 339.108 239.444 339.66L245.852 351H241.136L235.088 340.128H230.552V351H226.34ZM236.168 328.032H230.552V336.6H236.168C237.68 336.6 238.82 336.168 239.588 335.304C240.356 334.416 240.74 333.42 240.74 332.316C240.74 331.212 240.356 330.228 239.588 329.364C238.82 328.476 237.68 328.032 236.168 328.032ZM251.274 351V324.36H268.662V328.032H255.486V335.628H267.006V339.264H255.486V347.328H268.842V351H251.274ZM272.909 351L282.197 324.36H287.597L296.921 351H292.493L290.441 345.024H279.389L277.337 351H272.909ZM280.649 341.28H289.181L284.933 328.86L280.649 341.28ZM309.938 351.36C308.354 351.36 306.986 351.156 305.834 350.748C304.706 350.34 303.77 349.824 303.026 349.2C302.282 348.552 301.682 347.868 301.226 347.148C300.794 346.428 300.47 345.756 300.254 345.132C300.038 344.484 299.894 343.956 299.822 343.548C299.75 343.14 299.714 342.936 299.714 342.936H303.998C303.998 342.936 304.034 343.104 304.106 343.44C304.178 343.752 304.322 344.148 304.538 344.628C304.754 345.084 305.078 345.552 305.51 346.032C305.966 346.488 306.554 346.884 307.274 347.22C308.018 347.532 308.954 347.688 310.082 347.688C311.762 347.688 313.07 347.292 314.006 346.5C314.966 345.708 315.446 344.7 315.446 343.476C315.446 342.42 315.086 341.604 314.366 341.028C313.67 340.428 312.638 339.972 311.27 339.66L307.742 338.832C306.422 338.544 305.198 338.124 304.07 337.572C302.966 336.996 302.066 336.228 301.37 335.268C300.698 334.308 300.362 333.096 300.362 331.632C300.362 330.048 300.746 328.692 301.514 327.564C302.306 326.412 303.386 325.536 304.754 324.936C306.146 324.312 307.73 324 309.506 324C311.234 324 312.662 324.264 313.79 324.792C314.918 325.296 315.818 325.92 316.49 326.664C317.162 327.408 317.654 328.164 317.966 328.932C318.302 329.676 318.518 330.312 318.614 330.84C318.71 331.344 318.758 331.596 318.758 331.596H314.654C314.654 331.596 314.606 331.404 314.51 331.02C314.414 330.612 314.186 330.144 313.826 329.616C313.49 329.088 312.962 328.632 312.242 328.248C311.546 327.84 310.598 327.636 309.398 327.636C307.742 327.636 306.506 328.02 305.69 328.788C304.874 329.556 304.466 330.408 304.466 331.344C304.466 332.256 304.814 332.988 305.51 333.54C306.206 334.068 307.142 334.464 308.318 334.728L312.098 335.628C313.49 335.94 314.75 336.408 315.878 337.032C317.03 337.656 317.942 338.484 318.614 339.516C319.286 340.524 319.622 341.76 319.622 343.224C319.622 344.712 319.25 346.08 318.506 347.328C317.786 348.552 316.706 349.536 315.266 350.28C313.826 351 312.05 351.36 309.938 351.36ZM324.249 351V324.36H341.637V328.032H328.461V335.628H339.981V339.264H328.461V347.328H341.817V351H324.249ZM355.836 351V324.36H360.048V351H355.836ZM365.864 351V324.36H369.68L382.748 343.512V324.36H386.96V351H383.108L370.04 332.028V351H365.864ZM167.355 392.36C165.219 392.36 163.347 391.976 161.739 391.208C160.155 390.416 158.823 389.372 157.743 388.076C156.687 386.756 155.883 385.292 155.331 383.684C154.803 382.052 154.539 380.384 154.539 378.68C154.539 376.976 154.803 375.308 155.331 373.676C155.883 372.044 156.687 370.58 157.743 369.284C158.823 367.964 160.155 366.92 161.739 366.152C163.347 365.384 165.219 365 167.355 365C169.107 365 170.607 365.228 171.855 365.684C173.127 366.14 174.183 366.728 175.023 367.448C175.887 368.144 176.571 368.888 177.075 369.68C177.603 370.472 177.987 371.228 178.227 371.948C178.491 372.668 178.671 373.256 178.767 373.712C178.863 374.144 178.911 374.36 178.911 374.36H174.699C174.699 374.36 174.651 374.18 174.555 373.82C174.483 373.436 174.303 372.968 174.015 372.416C173.751 371.864 173.343 371.324 172.791 370.796C172.263 370.244 171.555 369.788 170.667 369.428C169.803 369.044 168.711 368.852 167.391 368.852C165.975 368.852 164.727 369.128 163.647 369.68C162.591 370.232 161.703 370.976 160.983 371.912C160.263 372.848 159.723 373.904 159.363 375.08C159.027 376.256 158.859 377.456 158.859 378.68C158.859 379.904 159.027 381.104 159.363 382.28C159.723 383.432 160.263 384.488 160.983 385.448C161.703 386.384 162.591 387.128 163.647 387.68C164.727 388.232 165.975 388.508 167.391 388.508C168.711 388.508 169.803 388.328 170.667 387.968C171.555 387.584 172.263 387.116 172.791 386.564C173.343 386.012 173.751 385.46 174.015 384.908C174.303 384.356 174.483 383.9 174.555 383.54C174.651 383.156 174.699 382.964 174.699 382.964H178.911C178.911 382.964 178.863 383.192 178.767 383.648C178.671 384.104 178.491 384.692 178.227 385.412C177.987 386.108 177.603 386.864 177.075 387.68C176.571 388.472 175.887 389.228 175.023 389.948C174.183 390.644 173.127 391.22 171.855 391.676C170.607 392.132 169.107 392.36 167.355 392.36ZM183.819 392V365.36H188.031V388.328H201.495V392H183.819ZM206.855 392V365.36H211.067V392H206.855ZM228.763 392.36C226.627 392.36 224.755 391.976 223.147 391.208C221.563 390.416 220.231 389.372 219.151 388.076C218.095 386.756 217.291 385.292 216.739 383.684C216.211 382.052 215.947 380.384 215.947 378.68C215.947 376.976 216.211 375.308 216.739 373.676C217.291 372.044 218.095 370.58 219.151 369.284C220.231 367.964 221.563 366.92 223.147 366.152C224.755 365.384 226.627 365 228.763 365C230.515 365 232.015 365.228 233.263 365.684C234.535 366.14 235.591 366.728 236.431 367.448C237.295 368.144 237.979 368.888 238.483 369.68C239.011 370.472 239.395 371.228 239.635 371.948C239.899 372.668 240.079 373.256 240.175 373.712C240.271 374.144 240.319 374.36 240.319 374.36H236.107C236.107 374.36 236.059 374.18 235.963 373.82C235.891 373.436 235.711 372.968 235.423 372.416C235.159 371.864 234.751 371.324 234.199 370.796C233.671 370.244 232.963 369.788 232.075 369.428C231.211 369.044 230.119 368.852 228.799 368.852C227.383 368.852 226.135 369.128 225.055 369.68C223.999 370.232 223.111 370.976 222.391 371.912C221.671 372.848 221.131 373.904 220.771 375.08C220.435 376.256 220.267 377.456 220.267 378.68C220.267 379.904 220.435 381.104 220.771 382.28C221.131 383.432 221.671 384.488 222.391 385.448C223.111 386.384 223.999 387.128 225.055 387.68C226.135 388.232 227.383 388.508 228.799 388.508C230.119 388.508 231.211 388.328 232.075 387.968C232.963 387.584 233.671 387.116 234.199 386.564C234.751 386.012 235.159 385.46 235.423 384.908C235.711 384.356 235.891 383.9 235.963 383.54C236.059 383.156 236.107 382.964 236.107 382.964H240.319C240.319 382.964 240.271 383.192 240.175 383.648C240.079 384.104 239.899 384.692 239.635 385.412C239.395 386.108 239.011 386.864 238.483 387.68C237.979 388.472 237.295 389.228 236.431 389.948C235.591 390.644 234.535 391.22 233.263 391.676C232.015 392.132 230.515 392.36 228.763 392.36ZM245.228 392V365.36H249.44V377.168L260.276 365.396H265.64L253.652 378.176L266.144 392H260.6L249.44 379.544V392H245.228ZM279.135 392V365.36H289.035C290.931 365.36 292.527 365.732 293.823 366.476C295.143 367.196 296.139 368.156 296.811 369.356C297.483 370.532 297.819 371.816 297.819 373.208C297.819 374.888 297.339 376.412 296.379 377.78C295.443 379.148 294.063 380.108 292.239 380.66L298.647 392H293.931L287.883 381.128H283.347V392H279.135ZM288.963 369.032H283.347V377.6H288.963C290.475 377.6 291.615 377.168 292.383 376.304C293.151 375.416 293.535 374.42 293.535 373.316C293.535 372.212 293.151 371.228 292.383 370.364C291.615 369.476 290.475 369.032 288.963 369.032ZM302.773 392L312.061 365.36H317.461L326.785 392H322.357L320.305 386.024H309.253L307.201 392H302.773ZM310.513 382.28H319.045L314.797 369.86L310.513 382.28ZM335.041 392V369.032H326.761V365.36H347.497V369.032H339.217V392H335.041ZM352.145 392V365.36H369.533V369.032H356.357V376.628H367.877V380.264H356.357V388.328H369.713V392H352.145ZM384.046 392.36C382.462 392.36 381.094 392.156 379.942 391.748C378.814 391.34 377.878 390.824 377.134 390.2C376.39 389.552 375.79 388.868 375.334 388.148C374.902 387.428 374.578 386.756 374.362 386.132C374.146 385.484 374.002 384.956 373.93 384.548C373.858 384.14 373.822 383.936 373.822 383.936H378.106C378.106 383.936 378.142 384.104 378.214 384.44C378.286 384.752 378.43 385.148 378.646 385.628C378.862 386.084 379.186 386.552 379.618 387.032C380.074 387.488 380.662 387.884 381.382 388.22C382.126 388.532 383.062 388.688 384.19 388.688C385.87 388.688 387.178 388.292 388.114 387.5C389.074 386.708 389.554 385.7 389.554 384.476C389.554 383.42 389.194 382.604 388.474 382.028C387.778 381.428 386.746 380.972 385.378 380.66L381.85 379.832C380.53 379.544 379.306 379.124 378.178 378.572C377.074 377.996 376.174 377.228 375.478 376.268C374.806 375.308 374.47 374.096 374.47 372.632C374.47 371.048 374.854 369.692 375.622 368.564C376.414 367.412 377.494 366.536 378.862 365.936C380.254 365.312 381.838 365 383.614 365C385.342 365 386.77 365.264 387.898 365.792C389.026 366.296 389.926 366.92 390.598 367.664C391.27 368.408 391.762 369.164 392.074 369.932C392.41 370.676 392.626 371.312 392.722 371.84C392.818 372.344 392.866 372.596 392.866 372.596H388.762C388.762 372.596 388.714 372.404 388.618 372.02C388.522 371.612 388.294 371.144 387.934 370.616C387.598 370.088 387.07 369.632 386.35 369.248C385.654 368.84 384.706 368.636 383.506 368.636C381.85 368.636 380.614 369.02 379.798 369.788C378.982 370.556 378.574 371.408 378.574 372.344C378.574 373.256 378.922 373.988 379.618 374.54C380.314 375.068 381.25 375.464 382.426 375.728L386.206 376.628C387.598 376.94 388.858 377.408 389.986 378.032C391.138 378.656 392.05 379.484 392.722 380.516C393.394 381.524 393.73 382.76 393.73 384.224C393.73 385.712 393.358 387.08 392.614 388.328C391.894 389.552 390.814 390.536 389.374 391.28C387.934 392 386.158 392.36 384.046 392.36Z" fill="#767676"/>
<circle cx="11.9333" cy="315.933" r="11.9333" fill="#0077BB"/>
<defs>
<filter id="filter0_d_788_12207" x="6.75781" y="0" width="540.242" height="545" filterUnits="userSpaceOnUse" color-interpolation-filters="sRGB">
<feFlood flood-opacity="0" result="BackgroundImageFix"/>
<feColorMatrix in="SourceAlpha" type="matrix" values="0 0 0 0 0 0 0 0 0 0 0 0 0 0 0 0 0 0 127 0" result="hardAlpha"/>
<feOffset dy="4"/>
<feGaussianBlur stdDeviation="2"/>
<feComposite in2="hardAlpha" operator="out"/>
<feColorMatrix type="matrix" values="0 0 0 0 0 0 0 0 0 0 0 0 0 0 0 0 0 0 0.25 0"/>
<feBlend mode="normal" in2="BackgroundImageFix" result="effect1_dropShadow_788_12207"/>
<feBlend mode="normal" in="SourceGraphic" in2="effect1_dropShadow_788_12207" result="shape"/>
</filter>
<filter id="filter1_d_788_12207" x="2" y="0.00170898" width="275.586" height="327.73" filterUnits="userSpaceOnUse" color-interpolation-filters="sRGB">
<feFlood flood-opacity="0" result="BackgroundImageFix"/>
<feColorMatrix in="SourceAlpha" type="matrix" values="0 0 0 0 0 0 0 0 0 0 0 0 0 0 0 0 0 0 127 0" result="hardAlpha"/>
<feOffset dy="4"/>
<feGaussianBlur stdDeviation="2"/>
<feComposite in2="hardAlpha" operator="out"/>
<feColorMatrix type="matrix" values="0 0 0 0 0 0 0 0 0 0 0 0 0 0 0 0 0 0 0.25 0"/>
<feBlend mode="normal" in2="BackgroundImageFix" result="effect1_dropShadow_788_12207"/>
<feBlend mode="normal" in="SourceGraphic" in2="effect1_dropShadow_788_12207" result="shape"/>
</filter>
</defs>
</svg>
