<svg width="289" height="66" viewBox="0 0 289 66" fill="none" xmlns="http://www.w3.org/2000/svg">
<path d="M44.6374 48.1952H19.648C17.6846 48.1952 16.0781 46.5888 16.0781 44.6253V19.6354C16.0781 17.6719 17.6846 16.0654 19.648 16.0654H44.6374C46.6008 16.0654 48.2073 17.6719 48.2073 19.6354V44.6253C48.2073 46.5888 46.6008 48.1952 44.6374 48.1952Z" fill="#FF8800"/>
<path d="M57.1143 0H52.2057H46.4046H32.125C32.125 3.92698 35.3379 7.13996 39.2648 7.13996H46.4046H52.2057H53.5444C55.5078 7.13996 57.1143 8.74645 57.1143 10.7099V11.6024V16.0649V24.9899C57.1143 28.9168 60.3272 32.1298 64.2541 32.1298V16.0649V11.6024V7.13996C64.2541 3.21298 61.0412 0 57.1143 0Z" fill="#FF8800"/>
<path d="M7.13981 64.2602H12.0484H17.8495H32.1291C32.1291 60.3332 28.9162 57.1202 24.9893 57.1202H17.8495H12.0484H10.7097C8.74626 57.1202 7.13981 55.5137 7.13981 53.5502V52.6578V48.1953V39.2703C7.13981 35.3434 3.92689 32.1304 0 32.1304V48.1953V52.6578V57.1202C0 61.0472 3.21291 64.2602 7.13981 64.2602Z" fill="#FF8800"/>
<path d="M110.888 64.216C108.523 64.216 107.407 63.5467 107.407 61.0477V42.3945C101.65 42.5284 95.7155 42.5284 89.9591 42.3945V61.0477C89.9591 64.93 86.7015 64.216 83.8456 64.216C81.4805 64.216 80.3203 63.5467 80.3203 61.0477V19.0112C80.3203 16.5568 81.7036 16.0659 83.8456 16.0659H86.9246C89.0219 16.0659 89.9591 16.9138 89.9591 19.0112V34.6298C95.7155 34.4959 101.65 34.4959 107.407 34.6298V19.0112C107.407 16.5568 108.701 16.0659 110.888 16.0659H113.922C115.93 16.0659 117.001 16.9138 117.001 19.0112V61.0477C117.001 64.93 113.699 64.216 110.888 64.216Z" fill="#FF8800"/>
<path d="M130.958 24.5892H128.236C125.648 24.5892 124.398 24.2322 124.398 21.3316V18.788C124.398 16.4675 125.336 15.6196 127.567 15.6196H130.958C132.832 15.6196 133.859 17.003 133.859 18.788V21.3316C133.859 23.3397 133.189 24.5892 130.958 24.5892ZM130.958 64.216H128.236C125.648 64.216 124.398 63.859 124.398 60.9584V32.8448C124.398 30.5243 125.336 29.6764 127.567 29.6764H130.958C132.832 29.6764 133.859 31.0598 133.859 32.8448V60.9584C133.859 63.0111 133.189 64.216 130.958 64.216Z" fill="#FF8800"/>
<path d="M157.33 64.216H144.791C142.426 64.216 141.266 63.5467 141.266 61.0477V19.0112C141.266 16.5568 142.694 16.0659 144.791 16.0659H157.33C160.989 16.0659 165.184 16.1998 168.665 17.5832C177.679 21.1085 178.169 32.4432 178.169 40.6542C178.169 56.3621 174.51 64.216 157.33 64.216ZM163.756 25.4371C161.793 24.5892 158.133 24.4107 155.991 24.4107C154.251 24.4107 152.6 24.5 150.949 24.6339V55.6034C152.6 55.7373 154.251 55.8266 155.991 55.8266C157.732 55.8266 159.472 55.7373 161.168 55.4696C165.987 54.6217 167.46 51.8103 167.995 47.1694C168.263 45.072 168.263 42.93 168.263 40.7434C168.308 36.1917 168.888 27.6684 163.756 25.4371Z" fill="#FF8800"/>
<path d="M202.805 37.8426C198.611 37.8426 196.513 38.512 193.077 40.654V61.0475C193.077 63.1448 192.363 64.2158 190.177 64.2158H187.455C184.911 64.2158 183.617 63.9481 183.617 61.0475V32.8C183.617 30.5688 184.554 29.7209 186.785 29.7209H190.177C191.828 29.7209 192.497 31.4613 192.854 32.9785C195.755 31.2381 198.923 29.6763 202.315 29.6763C205.84 29.6763 205.483 31.8183 205.483 34.585C205.438 36.5039 205.037 37.8426 202.805 37.8426Z" fill="#FF8800"/>
<path d="M216.153 24.5892H213.431C210.843 24.5892 209.594 24.2322 209.594 21.3316V18.788C209.594 16.4675 210.531 15.6196 212.762 15.6196H216.153C218.028 15.6196 219.054 17.003 219.054 18.788V21.3316C219.054 23.3397 218.385 24.5892 216.153 24.5892ZM216.153 64.216H213.431C210.843 64.216 209.594 63.859 209.594 60.9584V32.8448C209.594 30.5243 210.531 29.6764 212.762 29.6764H216.153C218.028 29.6764 219.054 31.0598 219.054 32.8448V60.9584C219.054 63.0111 218.385 64.216 216.153 64.216Z" fill="#FF8800"/>
<path d="M255.147 32.7108L244.482 61.6276C243.277 64.9298 241.001 64.2158 237.922 64.2158C235.691 64.2158 234.977 63.7696 234.174 61.6276L223.598 32.6661C223.464 32.3091 223.375 31.9521 223.375 31.5951C223.375 30.0779 224.446 29.7209 225.829 29.7209H229.712C231.72 29.7209 232.657 30.1671 233.237 32.1753L239.44 52.7026L245.642 32.2199C246.222 30.2118 247.159 29.6763 249.257 29.6763H252.916C254.121 29.6763 255.37 30.1225 255.37 31.5505C255.37 31.9521 255.281 32.3538 255.147 32.7108Z" fill="#FF8800"/>
<path d="M285.054 49.8918H267.473V50.9181C267.383 56.1839 268.678 58.1474 274.166 58.1474C277.111 58.1474 280.057 57.6565 282.957 56.9871C283.805 56.764 284.608 56.4962 285.501 56.4962C287.509 56.4962 287.598 59.7538 287.598 61.0926C287.598 63.1007 287.018 63.8147 285.01 64.2609C281.529 64.9749 277.647 65.1981 274.122 65.1981C261.136 65.1981 258.414 59.0845 258.414 47.1697C258.414 35.5672 260.735 28.6504 273.765 28.6504C285.635 28.6504 288.089 34.764 288.089 45.5185C288.044 48.2853 288.267 49.8918 285.054 49.8918ZM279.253 42.1717C279.253 37.7092 278.584 35.835 273.72 35.835C267.83 35.835 267.428 38.3786 267.428 43.5551H279.253V42.1717Z" fill="#FF8800"/>
</svg>
