<svg width="289" height="60" viewBox="0 0 289 60" fill="none" xmlns="http://www.w3.org/2000/svg">
<path d="M30.265 8.37408C25.4885 8.37408 21.6172 4.62359 21.6172 -3.30149e-05H51.885C56.6611 -3.30149e-05 60.5323 3.74845 60.5323 8.37408L60.5318 37.6826C55.7557 37.6826 51.884 33.9333 51.884 29.3092L51.885 12.5608C51.885 10.2488 49.9485 8.37408 47.5608 8.37408H30.265Z" fill="#FF8800"/>
<path d="M43.2391 20.9356C43.2391 18.6232 41.3029 16.7481 38.9153 16.7481H4.32359C1.93547 16.7481 0 18.6232 0 20.9356V54.4309C0 56.7434 1.93547 58.6182 4.32359 58.6182H38.9153C41.3029 58.6182 43.2391 56.7434 43.2391 54.4309V20.9356" fill="#FF8800"/>
<path d="M103.634 54.5384C101.236 58.9326 95.0115 59.2471 90.2141 59.2471C86.5183 59.2471 82.823 58.9955 80.6836 58.8075C78.0262 58.5559 77.3125 57.9287 77.3125 56.6106V54.4758C77.3125 52.2153 77.702 51.4622 79.776 51.4622C83.6015 51.4622 85.5458 51.9644 91.1865 51.9644C95.5301 51.9644 96.3729 51.6507 96.3729 47.884C96.3729 43.6155 96.3086 43.3016 94.1038 42.4228C91.3162 41.2926 88.6582 40.2252 85.9353 39.0956C79.1925 36.2705 77.8317 35.015 77.8317 27.5452C77.8317 22.7735 78.7393 19.0696 84.2498 17.3119C86.6485 16.5585 89.4361 16.3078 93.2611 16.3078C96.2438 16.3078 97.7991 16.4329 100.587 16.6216C103.245 16.8102 104.023 17.4374 104.023 18.8186V20.8905C104.023 23.1499 103.569 23.9037 101.495 23.9037C99.2259 23.9037 99.0309 23.527 89.8256 23.527C86.1947 23.527 86.3243 25.0333 86.3243 28.1098C86.3243 30.3698 86.3891 30.8722 88.5933 31.8135C90.3437 32.567 92.159 33.2573 93.9094 34.0105C102.921 37.7144 104.866 38.5932 104.866 45.7496C104.866 48.1354 104.801 52.341 103.634 54.5384" fill="#FF8800"/>
<path d="M139.137 23.9666C135.441 23.9666 132.395 23.9038 129.607 23.8407V55.9195C129.607 57.8033 128.699 58.6821 126.819 58.6821H124.031C121.892 58.6821 120.919 58.1167 120.919 55.9195V23.8407C118.131 23.9038 115.02 23.9666 111.324 23.9666C108.666 23.9666 108.602 22.3345 108.602 21.0163V19.3204C108.602 17.1863 109.833 16.7472 111.324 16.7472H139.137C140.628 16.7472 141.924 17.1863 141.924 19.3204V21.0163C141.924 22.3345 141.795 23.9666 139.137 23.9666Z" fill="#FF8800"/>
<path d="M165.747 24.4059C164.711 23.9038 161.923 23.9038 160.756 23.9038C158.681 23.9038 156.996 23.9666 155.18 24.0289V36.2706H162.506C164.839 36.2706 166.007 35.8939 166.719 35.0151C167.303 34.2615 167.497 33.2574 167.497 30.9347C167.497 28.3609 167.239 25.1591 165.747 24.4059ZM176.055 58.6821H172.165C170.545 58.6821 169.442 58.4934 168.212 56.9873L157.19 43.427H155.18V55.9195C155.18 57.8033 154.338 58.6821 152.458 58.6821H149.669C147.53 58.6821 146.492 58.1167 146.492 55.9195V19.3204C146.492 16.8725 148.243 16.7472 149.669 16.7472H161.663C168.47 16.7472 170.221 17.1863 172.75 19.6975C175.148 22.0202 176.12 26.0383 176.12 31.4369C176.12 36.5842 174.565 39.7863 171.842 41.6065C170.675 42.3601 169.314 42.8618 167.497 43.1132L177.417 54.7901C178.713 56.2962 178.973 58.6821 176.055 58.6821" fill="#FF8800"/>
<path d="M201.063 27.3567L195.877 42.1715C197.368 42.1715 199.119 42.1086 200.999 42.1086C203.008 42.1086 204.37 42.1715 206.25 42.1715L201.063 27.3567ZM218.179 58.6821H214.613C212.604 58.6821 212.02 57.74 211.567 56.4851L208.715 48.6372C205.927 48.7 203.851 48.7 200.999 48.7C198.275 48.7 195.877 48.7 193.543 48.6372L190.95 56.0456C190.366 57.74 189.848 58.6821 187.643 58.6821H184.661C182.457 58.6821 182.133 58.1167 182.133 57.175C182.133 56.7983 182.328 56.0456 182.651 55.2296L195.942 19.3204C196.655 17.3746 197.368 16.496 199.767 16.496H202.425C204.824 16.496 205.537 17.3746 206.25 19.258L220.254 55.8569C220.384 56.1713 220.513 56.4851 220.513 56.7983C220.513 58.3683 219.216 58.6821 218.179 58.6821" fill="#FF8800"/>
<path d="M247.48 23.9666C243.785 23.9666 240.738 23.9038 237.95 23.8407V55.9195C237.95 57.8033 237.042 58.6821 235.162 58.6821H232.375C230.235 58.6821 229.262 58.1167 229.262 55.9195V23.8407C226.475 23.9038 223.363 23.9666 219.668 23.9666C217.01 23.9666 216.945 22.3345 216.945 21.0163V19.3204C216.945 17.1863 218.176 16.7472 219.668 16.7472H247.48C248.972 16.7472 250.269 17.1863 250.269 19.3204V21.0163C250.269 22.3345 250.138 23.9666 247.48 23.9666Z" fill="#FF8800"/>
<path d="M278.563 26.9173C277.137 23.9672 274.154 22.8998 270.524 22.8998C266.893 22.8998 263.911 23.9672 262.485 26.9173C261.253 29.554 261.058 34.5759 261.058 37.7774C261.058 40.9785 261.253 45.9384 262.485 48.5749C263.911 51.5252 266.893 52.6555 270.524 52.6555C274.154 52.6555 277.137 51.5252 278.563 48.5749C279.795 45.9384 279.989 40.9785 279.989 37.7774C279.989 34.5759 279.795 29.554 278.563 26.9173V26.9173ZM284.138 54.727C281.026 58.3052 276.683 60 270.524 60C264.364 60 259.891 58.3052 256.845 54.727C253.019 50.3325 252.047 44.2436 252.047 37.7774C252.047 31.3119 253.019 25.2227 256.845 20.8279C260.021 17.1868 264.494 15.5542 270.524 15.5542C276.553 15.5542 280.961 17.1868 284.138 20.8279C287.963 25.2227 289.001 31.3119 289.001 37.7774C289.001 44.2436 287.963 50.3325 284.138 54.727" fill="#FF8800"/>
</svg>
